<svg xmlns="http://www.w3.org/2000/svg" viewBox="0 0 840 300" width="840" height="300" role="img" aria-label="entropy report">
<rect width="840" height="300" rx="10" fill="#1e1e2e"/>
<rect x="0.5" y="0.5" width="839" height="299" rx="10" fill="none" stroke="#313244"/>
<text x="28" y="38" font-family="JetBrains Mono, ui-monospace, SFMono-Regular, Menlo, monospace" font-size="14" font-weight="600" fill="#cba6f7">$ entropy --user winniepwned</text>
<text x="812" y="38" text-anchor="end" font-family="JetBrains Mono, ui-monospace, SFMono-Regular, Menlo, monospace" font-size="11" fill="#6c7086">2026-07-22</text>
<text x="28" y="66" font-family="JetBrains Mono, ui-monospace, SFMono-Regular, Menlo, monospace" font-size="9.5" fill="#6c7086">/dev/urandom — where the bear goes to think</text>
<rect x="28.00" y="74.00" width="7.32" height="7.32" rx="1" fill="#313244" opacity="0.222"/>
<rect x="36.52" y="74.00" width="7.32" height="7.32" rx="1" fill="#cba6f7" opacity="0.851"/>
<rect x="70.61" y="74.00" width="7.32" height="7.32" rx="1" fill="#313244" opacity="0.25"/>
<rect x="87.65" y="74.00" width="7.32" height="7.32" rx="1" fill="#cba6f7" opacity="0.964"/>
<rect x="121.74" y="74.00" width="7.32" height="7.32" rx="1" fill="#b4befe" opacity="0.612"/>
<rect x="130.26" y="74.00" width="7.32" height="7.32" rx="1" fill="#313244" opacity="0.173"/>
<rect x="138.78" y="74.00" width="7.32" height="7.32" rx="1" fill="#cba6f7" opacity="0.958"/>
<rect x="147.30" y="74.00" width="7.32" height="7.32" rx="1" fill="#313244" opacity="0.219"/>
<rect x="155.83" y="74.00" width="7.32" height="7.32" rx="1" fill="#b4befe" opacity="0.58"/>
<rect x="164.35" y="74.00" width="7.32" height="7.32" rx="1" fill="#cba6f7" opacity="0.863"/>
<rect x="181.39" y="74.00" width="7.32" height="7.32" rx="1" fill="#313244" opacity="0.281"/>
<rect x="189.91" y="74.00" width="7.32" height="7.32" rx="1" fill="#b4befe" opacity="0.634"/>
<rect x="198.43" y="74.00" width="7.32" height="7.32" rx="1" fill="#cba6f7" opacity="0.74"/>
<rect x="215.48" y="74.00" width="7.32" height="7.32" rx="1" fill="#313244" opacity="0.177"/>
<rect x="224.00" y="74.00" width="7.32" height="7.32" rx="1" fill="#b4befe" opacity="0.612"/>
<rect x="232.52" y="74.00" width="7.32" height="7.32" rx="1" fill="#313244" opacity="0.264"/>
<rect x="241.04" y="74.00" width="7.32" height="7.32" rx="1" fill="#313244" opacity="0.15"/>
<rect x="266.61" y="74.00" width="7.32" height="7.32" rx="1" fill="#cba6f7" opacity="0.977"/>
<rect x="292.17" y="74.00" width="7.32" height="7.32" rx="1" fill="#313244" opacity="0.141"/>
<rect x="309.22" y="74.00" width="7.32" height="7.32" rx="1" fill="#b4befe" opacity="0.663"/>
<rect x="317.74" y="74.00" width="7.32" height="7.32" rx="1" fill="#313244" opacity="0.197"/>
<rect x="326.26" y="74.00" width="7.32" height="7.32" rx="1" fill="#b4befe" opacity="0.664"/>
<rect x="334.78" y="74.00" width="7.32" height="7.32" rx="1" fill="#313244" opacity="0.219"/>
<rect x="360.35" y="74.00" width="7.32" height="7.32" rx="1" fill="#313244" opacity="0.262"/>
<rect x="368.87" y="74.00" width="7.32" height="7.32" rx="1" fill="#b4befe" opacity="0.634"/>
<rect x="377.39" y="74.00" width="7.32" height="7.32" rx="1" fill="#313244" opacity="0.239"/>
<rect x="385.91" y="74.00" width="7.32" height="7.32" rx="1" fill="#313244" opacity="0.253"/>
<rect x="394.43" y="74.00" width="7.32" height="7.32" rx="1" fill="#313244" opacity="0.178"/>
<rect x="402.96" y="74.00" width="7.32" height="7.32" rx="1" fill="#313244" opacity="0.175"/>
<rect x="411.48" y="74.00" width="7.32" height="7.32" rx="1" fill="#b4befe" opacity="0.611"/>
<rect x="420.00" y="74.00" width="7.32" height="7.32" rx="1" fill="#313244" opacity="0.142"/>
<rect x="437.04" y="74.00" width="7.32" height="7.32" rx="1" fill="#b4befe" opacity="0.465"/>
<rect x="462.61" y="74.00" width="7.32" height="7.32" rx="1" fill="#b4befe" opacity="0.379"/>
<rect x="479.65" y="74.00" width="7.32" height="7.32" rx="1" fill="#313244" opacity="0.344"/>
<rect x="488.17" y="74.00" width="7.32" height="7.32" rx="1" fill="#cba6f7" opacity="0.713"/>
<rect x="496.70" y="74.00" width="7.32" height="7.32" rx="1" fill="#b4befe" opacity="0.503"/>
<rect x="530.78" y="74.00" width="7.32" height="7.32" rx="1" fill="#b4befe" opacity="0.437"/>
<rect x="547.83" y="74.00" width="7.32" height="7.32" rx="1" fill="#313244" opacity="0.288"/>
<rect x="556.35" y="74.00" width="7.32" height="7.32" rx="1" fill="#313244" opacity="0.165"/>
<rect x="573.39" y="74.00" width="7.32" height="7.32" rx="1" fill="#313244" opacity="0.259"/>
<rect x="581.91" y="74.00" width="7.32" height="7.32" rx="1" fill="#cba6f7" opacity="0.917"/>
<rect x="607.48" y="74.00" width="7.32" height="7.32" rx="1" fill="#313244" opacity="0.257"/>
<rect x="616.00" y="74.00" width="7.32" height="7.32" rx="1" fill="#b4befe" opacity="0.376"/>
<rect x="633.04" y="74.00" width="7.32" height="7.32" rx="1" fill="#cba6f7" opacity="0.766"/>
<rect x="641.57" y="74.00" width="7.32" height="7.32" rx="1" fill="#cba6f7" opacity="0.936"/>
<rect x="650.09" y="74.00" width="7.32" height="7.32" rx="1" fill="#b4befe" opacity="0.532"/>
<rect x="658.61" y="74.00" width="7.32" height="7.32" rx="1" fill="#b4befe" opacity="0.531"/>
<rect x="667.13" y="74.00" width="7.32" height="7.32" rx="1" fill="#313244" opacity="0.283"/>
<rect x="675.65" y="74.00" width="7.32" height="7.32" rx="1" fill="#313244" opacity="0.172"/>
<rect x="684.17" y="74.00" width="7.32" height="7.32" rx="1" fill="#b4befe" opacity="0.431"/>
<rect x="718.26" y="74.00" width="7.32" height="7.32" rx="1" fill="#b4befe" opacity="0.51"/>
<rect x="726.78" y="74.00" width="7.32" height="7.32" rx="1" fill="#b4befe" opacity="0.603"/>
<rect x="760.87" y="74.00" width="7.32" height="7.32" rx="1" fill="#b4befe" opacity="0.56"/>
<rect x="777.91" y="74.00" width="7.32" height="7.32" rx="1" fill="#313244" opacity="0.225"/>
<rect x="786.43" y="74.00" width="7.32" height="7.32" rx="1" fill="#313244" opacity="0.121"/>
<rect x="28.00" y="82.52" width="7.32" height="7.32" rx="1" fill="#b4befe" opacity="0.582"/>
<rect x="45.04" y="82.52" width="7.32" height="7.32" rx="1" fill="#313244" opacity="0.187"/>
<rect x="53.57" y="82.52" width="7.32" height="7.32" rx="1" fill="#313244" opacity="0.203"/>
<rect x="62.09" y="82.52" width="7.32" height="7.32" rx="1" fill="#313244" opacity="0.285"/>
<rect x="70.61" y="82.52" width="7.32" height="7.32" rx="1" fill="#b4befe" opacity="0.627"/>
<rect x="79.13" y="82.52" width="7.32" height="7.32" rx="1" fill="#313244" opacity="0.225"/>
<rect x="96.17" y="82.52" width="7.32" height="7.32" rx="1" fill="#b4befe" opacity="0.379"/>
<rect x="138.78" y="82.52" width="7.32" height="7.32" rx="1" fill="#313244" opacity="0.129"/>
<rect x="147.30" y="82.52" width="7.32" height="7.32" rx="1" fill="#cba6f7" opacity="0.764"/>
<rect x="155.83" y="82.52" width="7.32" height="7.32" rx="1" fill="#b4befe" opacity="0.585"/>
<rect x="164.35" y="82.52" width="7.32" height="7.32" rx="1" fill="#cba6f7" opacity="0.907"/>
<rect x="172.87" y="82.52" width="7.32" height="7.32" rx="1" fill="#313244" opacity="0.22"/>
<rect x="181.39" y="82.52" width="7.32" height="7.32" rx="1" fill="#313244" opacity="0.314"/>
<rect x="189.91" y="82.52" width="7.32" height="7.32" rx="1" fill="#b4befe" opacity="0.558"/>
<rect x="198.43" y="82.52" width="7.32" height="7.32" rx="1" fill="#313244" opacity="0.215"/>
<rect x="206.96" y="82.52" width="7.32" height="7.32" rx="1" fill="#313244" opacity="0.29"/>
<rect x="232.52" y="82.52" width="7.32" height="7.32" rx="1" fill="#b4befe" opacity="0.393"/>
<rect x="241.04" y="82.52" width="7.32" height="7.32" rx="1" fill="#313244" opacity="0.132"/>
<rect x="258.09" y="82.52" width="7.32" height="7.32" rx="1" fill="#313244" opacity="0.179"/>
<rect x="266.61" y="82.52" width="7.32" height="7.32" rx="1" fill="#313244" opacity="0.279"/>
<rect x="275.13" y="82.52" width="7.32" height="7.32" rx="1" fill="#cba6f7" opacity="0.849"/>
<rect x="283.65" y="82.52" width="7.32" height="7.32" rx="1" fill="#cba6f7" opacity="0.98"/>
<rect x="292.17" y="82.52" width="7.32" height="7.32" rx="1" fill="#313244" opacity="0.124"/>
<rect x="300.70" y="82.52" width="7.32" height="7.32" rx="1" fill="#313244" opacity="0.222"/>
<rect x="317.74" y="82.52" width="7.32" height="7.32" rx="1" fill="#b4befe" opacity="0.395"/>
<rect x="334.78" y="82.52" width="7.32" height="7.32" rx="1" fill="#b4befe" opacity="0.696"/>
<rect x="351.83" y="82.52" width="7.32" height="7.32" rx="1" fill="#313244" opacity="0.118"/>
<rect x="360.35" y="82.52" width="7.32" height="7.32" rx="1" fill="#b4befe" opacity="0.382"/>
<rect x="368.87" y="82.52" width="7.32" height="7.32" rx="1" fill="#b4befe" opacity="0.388"/>
<rect x="377.39" y="82.52" width="7.32" height="7.32" rx="1" fill="#313244" opacity="0.277"/>
<rect x="385.91" y="82.52" width="7.32" height="7.32" rx="1" fill="#b4befe" opacity="0.669"/>
<rect x="394.43" y="82.52" width="7.32" height="7.32" rx="1" fill="#cba6f7" opacity="0.85"/>
<rect x="420.00" y="82.52" width="7.32" height="7.32" rx="1" fill="#b4befe" opacity="0.615"/>
<rect x="428.52" y="82.52" width="7.32" height="7.32" rx="1" fill="#313244" opacity="0.171"/>
<rect x="437.04" y="82.52" width="7.32" height="7.32" rx="1" fill="#b4befe" opacity="0.411"/>
<rect x="462.61" y="82.52" width="7.32" height="7.32" rx="1" fill="#b4befe" opacity="0.632"/>
<rect x="471.13" y="82.52" width="7.32" height="7.32" rx="1" fill="#cba6f7" opacity="0.788"/>
<rect x="479.65" y="82.52" width="7.32" height="7.32" rx="1" fill="#313244" opacity="0.305"/>
<rect x="496.70" y="82.52" width="7.32" height="7.32" rx="1" fill="#b4befe" opacity="0.407"/>
<rect x="505.22" y="82.52" width="7.32" height="7.32" rx="1" fill="#cba6f7" opacity="0.847"/>
<rect x="513.74" y="82.52" width="7.32" height="7.32" rx="1" fill="#313244" opacity="0.129"/>
<rect x="530.78" y="82.52" width="7.32" height="7.32" rx="1" fill="#b4befe" opacity="0.379"/>
<rect x="539.30" y="82.52" width="7.32" height="7.32" rx="1" fill="#313244" opacity="0.162"/>
<rect x="556.35" y="82.52" width="7.32" height="7.32" rx="1" fill="#313244" opacity="0.321"/>
<rect x="573.39" y="82.52" width="7.32" height="7.32" rx="1" fill="#313244" opacity="0.141"/>
<rect x="581.91" y="82.52" width="7.32" height="7.32" rx="1" fill="#b4befe" opacity="0.375"/>
<rect x="598.96" y="82.52" width="7.32" height="7.32" rx="1" fill="#313244" opacity="0.279"/>
<rect x="607.48" y="82.52" width="7.32" height="7.32" rx="1" fill="#b4befe" opacity="0.529"/>
<rect x="633.04" y="82.52" width="7.32" height="7.32" rx="1" fill="#b4befe" opacity="0.661"/>
<rect x="641.57" y="82.52" width="7.32" height="7.32" rx="1" fill="#313244" opacity="0.297"/>
<rect x="667.13" y="82.52" width="7.32" height="7.32" rx="1" fill="#313244" opacity="0.31"/>
<rect x="675.65" y="82.52" width="7.32" height="7.32" rx="1" fill="#313244" opacity="0.175"/>
<rect x="684.17" y="82.52" width="7.32" height="7.32" rx="1" fill="#cba6f7" opacity="0.94"/>
<rect x="692.70" y="82.52" width="7.32" height="7.32" rx="1" fill="#313244" opacity="0.147"/>
<rect x="718.26" y="82.52" width="7.32" height="7.32" rx="1" fill="#313244" opacity="0.195"/>
<rect x="726.78" y="82.52" width="7.32" height="7.32" rx="1" fill="#313244" opacity="0.316"/>
<rect x="735.30" y="82.52" width="7.32" height="7.32" rx="1" fill="#b4befe" opacity="0.665"/>
<rect x="743.83" y="82.52" width="7.32" height="7.32" rx="1" fill="#313244" opacity="0.188"/>
<rect x="760.87" y="82.52" width="7.32" height="7.32" rx="1" fill="#313244" opacity="0.283"/>
<rect x="777.91" y="82.52" width="7.32" height="7.32" rx="1" fill="#313244" opacity="0.275"/>
<rect x="794.96" y="82.52" width="7.32" height="7.32" rx="1" fill="#cba6f7" opacity="0.866"/>
<rect x="803.48" y="82.52" width="7.32" height="7.32" rx="1" fill="#313244" opacity="0.323"/>
<rect x="28.00" y="91.04" width="7.32" height="7.32" rx="1" fill="#cba6f7" opacity="0.816"/>
<rect x="53.57" y="91.04" width="7.32" height="7.32" rx="1" fill="#b4befe" opacity="0.514"/>
<rect x="70.61" y="91.04" width="7.32" height="7.32" rx="1" fill="#cba6f7" opacity="0.941"/>
<rect x="79.13" y="91.04" width="7.32" height="7.32" rx="1" fill="#cba6f7" opacity="0.915"/>
<rect x="87.65" y="91.04" width="7.32" height="7.32" rx="1" fill="#cba6f7" opacity="0.932"/>
<rect x="96.17" y="91.04" width="7.32" height="7.32" rx="1" fill="#b4befe" opacity="0.699"/>
<rect x="113.22" y="91.04" width="7.32" height="7.32" rx="1" fill="#cba6f7" opacity="0.739"/>
<rect x="147.30" y="91.04" width="7.32" height="7.32" rx="1" fill="#b4befe" opacity="0.387"/>
<rect x="172.87" y="91.04" width="7.32" height="7.32" rx="1" fill="#313244" opacity="0.337"/>
<rect x="181.39" y="91.04" width="7.32" height="7.32" rx="1" fill="#313244" opacity="0.139"/>
<rect x="198.43" y="91.04" width="7.32" height="7.32" rx="1" fill="#313244" opacity="0.254"/>
<rect x="206.96" y="91.04" width="7.32" height="7.32" rx="1" fill="#b4befe" opacity="0.494"/>
<rect x="215.48" y="91.04" width="7.32" height="7.32" rx="1" fill="#b4befe" opacity="0.4"/>
<rect x="232.52" y="91.04" width="7.32" height="7.32" rx="1" fill="#cba6f7" opacity="0.708"/>
<rect x="241.04" y="91.04" width="7.32" height="7.32" rx="1" fill="#313244" opacity="0.124"/>
<rect x="249.57" y="91.04" width="7.32" height="7.32" rx="1" fill="#b4befe" opacity="0.462"/>
<rect x="266.61" y="91.04" width="7.32" height="7.32" rx="1" fill="#cba6f7" opacity="0.752"/>
<rect x="275.13" y="91.04" width="7.32" height="7.32" rx="1" fill="#b4befe" opacity="0.412"/>
<rect x="292.17" y="91.04" width="7.32" height="7.32" rx="1" fill="#313244" opacity="0.134"/>
<rect x="300.70" y="91.04" width="7.32" height="7.32" rx="1" fill="#313244" opacity="0.143"/>
<rect x="309.22" y="91.04" width="7.32" height="7.32" rx="1" fill="#b4befe" opacity="0.561"/>
<rect x="343.30" y="91.04" width="7.32" height="7.32" rx="1" fill="#313244" opacity="0.333"/>
<rect x="351.83" y="91.04" width="7.32" height="7.32" rx="1" fill="#313244" opacity="0.149"/>
<rect x="368.87" y="91.04" width="7.32" height="7.32" rx="1" fill="#cba6f7" opacity="0.737"/>
<rect x="377.39" y="91.04" width="7.32" height="7.32" rx="1" fill="#b4befe" opacity="0.351"/>
<rect x="394.43" y="91.04" width="7.32" height="7.32" rx="1" fill="#b4befe" opacity="0.603"/>
<rect x="402.96" y="91.04" width="7.32" height="7.32" rx="1" fill="#313244" opacity="0.271"/>
<rect x="411.48" y="91.04" width="7.32" height="7.32" rx="1" fill="#b4befe" opacity="0.355"/>
<rect x="420.00" y="91.04" width="7.32" height="7.32" rx="1" fill="#cba6f7" opacity="0.717"/>
<rect x="428.52" y="91.04" width="7.32" height="7.32" rx="1" fill="#cba6f7" opacity="0.872"/>
<rect x="445.57" y="91.04" width="7.32" height="7.32" rx="1" fill="#313244" opacity="0.252"/>
<rect x="462.61" y="91.04" width="7.32" height="7.32" rx="1" fill="#313244" opacity="0.131"/>
<rect x="471.13" y="91.04" width="7.32" height="7.32" rx="1" fill="#b4befe" opacity="0.542"/>
<rect x="488.17" y="91.04" width="7.32" height="7.32" rx="1" fill="#313244" opacity="0.146"/>
<rect x="530.78" y="91.04" width="7.32" height="7.32" rx="1" fill="#313244" opacity="0.132"/>
<rect x="539.30" y="91.04" width="7.32" height="7.32" rx="1" fill="#313244" opacity="0.245"/>
<rect x="573.39" y="91.04" width="7.32" height="7.32" rx="1" fill="#b4befe" opacity="0.403"/>
<rect x="581.91" y="91.04" width="7.32" height="7.32" rx="1" fill="#b4befe" opacity="0.494"/>
<rect x="590.43" y="91.04" width="7.32" height="7.32" rx="1" fill="#313244" opacity="0.15"/>
<rect x="607.48" y="91.04" width="7.32" height="7.32" rx="1" fill="#313244" opacity="0.162"/>
<rect x="616.00" y="91.04" width="7.32" height="7.32" rx="1" fill="#b4befe" opacity="0.657"/>
<rect x="624.52" y="91.04" width="7.32" height="7.32" rx="1" fill="#313244" opacity="0.162"/>
<rect x="633.04" y="91.04" width="7.32" height="7.32" rx="1" fill="#b4befe" opacity="0.531"/>
<rect x="641.57" y="91.04" width="7.32" height="7.32" rx="1" fill="#b4befe" opacity="0.546"/>
<rect x="650.09" y="91.04" width="7.32" height="7.32" rx="1" fill="#313244" opacity="0.216"/>
<rect x="658.61" y="91.04" width="7.32" height="7.32" rx="1" fill="#cba6f7" opacity="0.778"/>
<rect x="667.13" y="91.04" width="7.32" height="7.32" rx="1" fill="#313244" opacity="0.148"/>
<rect x="675.65" y="91.04" width="7.32" height="7.32" rx="1" fill="#b4befe" opacity="0.611"/>
<rect x="684.17" y="91.04" width="7.32" height="7.32" rx="1" fill="#313244" opacity="0.217"/>
<rect x="709.74" y="91.04" width="7.32" height="7.32" rx="1" fill="#b4befe" opacity="0.367"/>
<rect x="743.83" y="91.04" width="7.32" height="7.32" rx="1" fill="#b4befe" opacity="0.601"/>
<rect x="752.35" y="91.04" width="7.32" height="7.32" rx="1" fill="#b4befe" opacity="0.477"/>
<rect x="803.48" y="91.04" width="7.32" height="7.32" rx="1" fill="#b4befe" opacity="0.57"/>

<g>
  <text x="28" y="149" font-family="JetBrains Mono, ui-monospace, SFMono-Regular, Menlo, monospace" font-size="12" fill="#a6adc8">weekdays</text>
  <rect x="124.00" y="140" width="11.75" height="11" rx="1" fill="#cba6f7" opacity="1.0"/><rect x="137.35" y="140" width="11.75" height="11" rx="1" fill="#cba6f7" opacity="1.0"/><rect x="150.70" y="140" width="11.75" height="11" rx="1" fill="#cba6f7" opacity="1.0"/><rect x="164.05" y="140" width="11.75" height="11" rx="1" fill="#cba6f7" opacity="1.0"/><rect x="177.40" y="140" width="11.75" height="11" rx="1" fill="#cba6f7" opacity="1.0"/><rect x="190.75" y="140" width="11.75" height="11" rx="1" fill="#cba6f7" opacity="1.0"/><rect x="204.10" y="140" width="11.75" height="11" rx="1" fill="#cba6f7" opacity="1.0"/><rect x="217.45" y="140" width="11.75" height="11" rx="1" fill="#cba6f7" opacity="1.0"/><rect x="230.80" y="140" width="11.75" height="11" rx="1" fill="#cba6f7" opacity="1.0"/><rect x="244.15" y="140" width="11.75" height="11" rx="1" fill="#cba6f7" opacity="1.0"/><rect x="257.50" y="140" width="11.75" height="11" rx="1" fill="#cba6f7" opacity="1.0"/><rect x="270.85" y="140" width="11.75" height="11" rx="1" fill="#cba6f7" opacity="1.0"/><rect x="284.20" y="140" width="11.75" height="11" rx="1" fill="#cba6f7" opacity="1.0"/><rect x="297.55" y="140" width="11.75" height="11" rx="1" fill="#cba6f7" opacity="1.0"/><rect x="310.90" y="140" width="11.75" height="11" rx="1" fill="#cba6f7" opacity="1.0"/><rect x="324.25" y="140" width="11.75" height="11" rx="1" fill="#cba6f7" opacity="1.0"/><rect x="337.60" y="140" width="11.75" height="11" rx="1" fill="#cba6f7" opacity="1.0"/><rect x="350.95" y="140" width="11.75" height="11" rx="1" fill="#cba6f7" opacity="1.0"/><rect x="364.30" y="140" width="11.75" height="11" rx="1" fill="#cba6f7" opacity="1.0"/><rect x="377.65" y="140" width="11.75" height="11" rx="1" fill="#cba6f7" opacity="1.0"/><rect x="391.00" y="140" width="11.75" height="11" rx="1" fill="#cba6f7" opacity="1.0"/><rect x="404.35" y="140" width="11.75" height="11" rx="1" fill="#cba6f7" opacity="1.0"/><rect x="417.70" y="140" width="11.75" height="11" rx="1" fill="#cba6f7" opacity="1.0"/><rect x="431.05" y="140" width="11.75" height="11" rx="1" fill="#cba6f7" opacity="1.0"/><rect x="444.40" y="140" width="11.75" height="11" rx="1" fill="#cba6f7" opacity="1.0"/><rect x="457.75" y="140" width="11.75" height="11" rx="1" fill="#cba6f7" opacity="1.0"/><rect x="471.10" y="140" width="11.75" height="11" rx="1" fill="#cba6f7" opacity="1.0"/><rect x="484.45" y="140" width="11.75" height="11" rx="1" fill="#cba6f7" opacity="1.0"/><rect x="497.80" y="140" width="11.75" height="11" rx="1" fill="#cba6f7" opacity="1.0"/><rect x="511.15" y="140" width="11.75" height="11" rx="1" fill="#cba6f7" opacity="1.0"/><rect x="524.50" y="140" width="11.75" height="11" rx="1" fill="#cba6f7" opacity="1.0"/><rect x="537.85" y="140" width="11.75" height="11" rx="1" fill="#cba6f7" opacity="1.0"/><rect x="551.20" y="140" width="11.75" height="11" rx="1" fill="#cba6f7" opacity="1.0"/><rect x="564.55" y="140" width="11.75" height="11" rx="1" fill="#cba6f7" opacity="1.0"/><rect x="577.90" y="140" width="11.75" height="11" rx="1" fill="#cba6f7" opacity="1.0"/><rect x="591.25" y="140" width="11.75" height="11" rx="1" fill="#cba6f7" opacity="1.0"/><rect x="604.60" y="140" width="11.75" height="11" rx="1" fill="#313244" opacity="0.45"/><rect x="617.95" y="140" width="11.75" height="11" rx="1" fill="#313244" opacity="0.45"/><rect x="631.30" y="140" width="11.75" height="11" rx="1" fill="#313244" opacity="0.45"/><rect x="644.65" y="140" width="11.75" height="11" rx="1" fill="#313244" opacity="0.45"/>
  <text x="674" y="149" font-family="JetBrains Mono, ui-monospace, SFMono-Regular, Menlo, monospace" font-size="12" fill="#cdd6f4">2.52</text>
  <text x="712" y="149" font-family="JetBrains Mono, ui-monospace, SFMono-Regular, Menlo, monospace" font-size="12" fill="#6c7086">/ 2.81 bits</text>
  <text x="124" y="166" font-family="JetBrains Mono, ui-monospace, SFMono-Regular, Menlo, monospace" font-size="9.5" fill="#6c7086">102 contributions across 7 days</text>
</g>

<g>
  <text x="28" y="195" font-family="JetBrains Mono, ui-monospace, SFMono-Regular, Menlo, monospace" font-size="12" fill="#a6adc8">the year</text>
  <rect x="124.00" y="186" width="11.75" height="11" rx="1" fill="#cba6f7" opacity="1.0"/><rect x="137.35" y="186" width="11.75" height="11" rx="1" fill="#cba6f7" opacity="1.0"/><rect x="150.70" y="186" width="11.75" height="11" rx="1" fill="#cba6f7" opacity="1.0"/><rect x="164.05" y="186" width="11.75" height="11" rx="1" fill="#cba6f7" opacity="1.0"/><rect x="177.40" y="186" width="11.75" height="11" rx="1" fill="#cba6f7" opacity="1.0"/><rect x="190.75" y="186" width="11.75" height="11" rx="1" fill="#cba6f7" opacity="1.0"/><rect x="204.10" y="186" width="11.75" height="11" rx="1" fill="#cba6f7" opacity="1.0"/><rect x="217.45" y="186" width="11.75" height="11" rx="1" fill="#cba6f7" opacity="1.0"/><rect x="230.80" y="186" width="11.75" height="11" rx="1" fill="#cba6f7" opacity="1.0"/><rect x="244.15" y="186" width="11.75" height="11" rx="1" fill="#cba6f7" opacity="1.0"/><rect x="257.50" y="186" width="11.75" height="11" rx="1" fill="#cba6f7" opacity="1.0"/><rect x="270.85" y="186" width="11.75" height="11" rx="1" fill="#cba6f7" opacity="1.0"/><rect x="284.20" y="186" width="11.75" height="11" rx="1" fill="#cba6f7" opacity="1.0"/><rect x="297.55" y="186" width="11.75" height="11" rx="1" fill="#cba6f7" opacity="1.0"/><rect x="310.90" y="186" width="11.75" height="11" rx="1" fill="#cba6f7" opacity="1.0"/><rect x="324.25" y="186" width="11.75" height="11" rx="1" fill="#cba6f7" opacity="1.0"/><rect x="337.60" y="186" width="11.75" height="11" rx="1" fill="#cba6f7" opacity="1.0"/><rect x="350.95" y="186" width="11.75" height="11" rx="1" fill="#cba6f7" opacity="1.0"/><rect x="364.30" y="186" width="11.75" height="11" rx="1" fill="#313244" opacity="0.45"/><rect x="377.65" y="186" width="11.75" height="11" rx="1" fill="#313244" opacity="0.45"/><rect x="391.00" y="186" width="11.75" height="11" rx="1" fill="#313244" opacity="0.45"/><rect x="404.35" y="186" width="11.75" height="11" rx="1" fill="#313244" opacity="0.45"/><rect x="417.70" y="186" width="11.75" height="11" rx="1" fill="#313244" opacity="0.45"/><rect x="431.05" y="186" width="11.75" height="11" rx="1" fill="#313244" opacity="0.45"/><rect x="444.40" y="186" width="11.75" height="11" rx="1" fill="#313244" opacity="0.45"/><rect x="457.75" y="186" width="11.75" height="11" rx="1" fill="#313244" opacity="0.45"/><rect x="471.10" y="186" width="11.75" height="11" rx="1" fill="#313244" opacity="0.45"/><rect x="484.45" y="186" width="11.75" height="11" rx="1" fill="#313244" opacity="0.45"/><rect x="497.80" y="186" width="11.75" height="11" rx="1" fill="#313244" opacity="0.45"/><rect x="511.15" y="186" width="11.75" height="11" rx="1" fill="#313244" opacity="0.45"/><rect x="524.50" y="186" width="11.75" height="11" rx="1" fill="#313244" opacity="0.45"/><rect x="537.85" y="186" width="11.75" height="11" rx="1" fill="#313244" opacity="0.45"/><rect x="551.20" y="186" width="11.75" height="11" rx="1" fill="#313244" opacity="0.45"/><rect x="564.55" y="186" width="11.75" height="11" rx="1" fill="#313244" opacity="0.45"/><rect x="577.90" y="186" width="11.75" height="11" rx="1" fill="#313244" opacity="0.45"/><rect x="591.25" y="186" width="11.75" height="11" rx="1" fill="#313244" opacity="0.45"/><rect x="604.60" y="186" width="11.75" height="11" rx="1" fill="#313244" opacity="0.45"/><rect x="617.95" y="186" width="11.75" height="11" rx="1" fill="#313244" opacity="0.45"/><rect x="631.30" y="186" width="11.75" height="11" rx="1" fill="#313244" opacity="0.45"/><rect x="644.65" y="186" width="11.75" height="11" rx="1" fill="#313244" opacity="0.45"/>
  <text x="674" y="195" font-family="JetBrains Mono, ui-monospace, SFMono-Regular, Menlo, monospace" font-size="12" fill="#cdd6f4">3.89</text>
  <text x="712" y="195" font-family="JetBrains Mono, ui-monospace, SFMono-Regular, Menlo, monospace" font-size="12" fill="#6c7086">/ 8.52 bits</text>
  <text x="124" y="212" font-family="JetBrains Mono, ui-monospace, SFMono-Regular, Menlo, monospace" font-size="9.5" fill="#6c7086">368 days observed</text>
</g>

<g>
  <text x="28" y="241" font-family="JetBrains Mono, ui-monospace, SFMono-Regular, Menlo, monospace" font-size="12" fill="#a6adc8">languages</text>
  <rect x="124.00" y="232" width="11.75" height="11" rx="1" fill="#313244" opacity="0.45"/><rect x="137.35" y="232" width="11.75" height="11" rx="1" fill="#313244" opacity="0.45"/><rect x="150.70" y="232" width="11.75" height="11" rx="1" fill="#313244" opacity="0.45"/><rect x="164.05" y="232" width="11.75" height="11" rx="1" fill="#313244" opacity="0.45"/><rect x="177.40" y="232" width="11.75" height="11" rx="1" fill="#313244" opacity="0.45"/><rect x="190.75" y="232" width="11.75" height="11" rx="1" fill="#313244" opacity="0.45"/><rect x="204.10" y="232" width="11.75" height="11" rx="1" fill="#313244" opacity="0.45"/><rect x="217.45" y="232" width="11.75" height="11" rx="1" fill="#313244" opacity="0.45"/><rect x="230.80" y="232" width="11.75" height="11" rx="1" fill="#313244" opacity="0.45"/><rect x="244.15" y="232" width="11.75" height="11" rx="1" fill="#313244" opacity="0.45"/><rect x="257.50" y="232" width="11.75" height="11" rx="1" fill="#313244" opacity="0.45"/><rect x="270.85" y="232" width="11.75" height="11" rx="1" fill="#313244" opacity="0.45"/><rect x="284.20" y="232" width="11.75" height="11" rx="1" fill="#313244" opacity="0.45"/><rect x="297.55" y="232" width="11.75" height="11" rx="1" fill="#313244" opacity="0.45"/><rect x="310.90" y="232" width="11.75" height="11" rx="1" fill="#313244" opacity="0.45"/><rect x="324.25" y="232" width="11.75" height="11" rx="1" fill="#313244" opacity="0.45"/><rect x="337.60" y="232" width="11.75" height="11" rx="1" fill="#313244" opacity="0.45"/><rect x="350.95" y="232" width="11.75" height="11" rx="1" fill="#313244" opacity="0.45"/><rect x="364.30" y="232" width="11.75" height="11" rx="1" fill="#313244" opacity="0.45"/><rect x="377.65" y="232" width="11.75" height="11" rx="1" fill="#313244" opacity="0.45"/><rect x="391.00" y="232" width="11.75" height="11" rx="1" fill="#313244" opacity="0.45"/><rect x="404.35" y="232" width="11.75" height="11" rx="1" fill="#313244" opacity="0.45"/><rect x="417.70" y="232" width="11.75" height="11" rx="1" fill="#313244" opacity="0.45"/><rect x="431.05" y="232" width="11.75" height="11" rx="1" fill="#313244" opacity="0.45"/><rect x="444.40" y="232" width="11.75" height="11" rx="1" fill="#313244" opacity="0.45"/><rect x="457.75" y="232" width="11.75" height="11" rx="1" fill="#313244" opacity="0.45"/><rect x="471.10" y="232" width="11.75" height="11" rx="1" fill="#313244" opacity="0.45"/><rect x="484.45" y="232" width="11.75" height="11" rx="1" fill="#313244" opacity="0.45"/><rect x="497.80" y="232" width="11.75" height="11" rx="1" fill="#313244" opacity="0.45"/><rect x="511.15" y="232" width="11.75" height="11" rx="1" fill="#313244" opacity="0.45"/><rect x="524.50" y="232" width="11.75" height="11" rx="1" fill="#313244" opacity="0.45"/><rect x="537.85" y="232" width="11.75" height="11" rx="1" fill="#313244" opacity="0.45"/><rect x="551.20" y="232" width="11.75" height="11" rx="1" fill="#313244" opacity="0.45"/><rect x="564.55" y="232" width="11.75" height="11" rx="1" fill="#313244" opacity="0.45"/><rect x="577.90" y="232" width="11.75" height="11" rx="1" fill="#313244" opacity="0.45"/><rect x="591.25" y="232" width="11.75" height="11" rx="1" fill="#313244" opacity="0.45"/><rect x="604.60" y="232" width="11.75" height="11" rx="1" fill="#313244" opacity="0.45"/><rect x="617.95" y="232" width="11.75" height="11" rx="1" fill="#313244" opacity="0.45"/><rect x="631.30" y="232" width="11.75" height="11" rx="1" fill="#313244" opacity="0.45"/><rect x="644.65" y="232" width="11.75" height="11" rx="1" fill="#313244" opacity="0.45"/>
  <text x="674" y="241" font-family="JetBrains Mono, ui-monospace, SFMono-Regular, Menlo, monospace" font-size="12" fill="#cdd6f4">0.00</text>
  <text x="712" y="241" font-family="JetBrains Mono, ui-monospace, SFMono-Regular, Menlo, monospace" font-size="12" fill="#6c7086">/ 0.00 bits</text>
  <text x="124" y="258" font-family="JetBrains Mono, ui-monospace, SFMono-Regular, Menlo, monospace" font-size="9.5" fill="#6c7086">—</text>
</g>
<line x1="28" y1="264" x2="812" y2="264" stroke="#313244"/>
<text x="28" y="283" font-family="JetBrains Mono, ui-monospace, SFMono-Regular, Menlo, monospace" font-size="11" fill="#f5c2e7">the bear is a creature of routine. this is a vulnerability.</text>
<text x="812" y="283" text-anchor="end" font-family="JetBrains Mono, ui-monospace, SFMono-Regular, Menlo, monospace" font-size="11" fill="#6c7086">disorder: 45%</text>
</svg>