<svg xmlns="http://www.w3.org/2000/svg" viewBox="0 0 840 300" width="840" height="300" role="img" aria-label="entropy report">
<rect width="840" height="300" rx="10" fill="#1e1e2e"/>
<rect x="0.5" y="0.5" width="839" height="299" rx="10" fill="none" stroke="#313244"/>
<text x="28" y="38" font-family="JetBrains Mono, ui-monospace, SFMono-Regular, Menlo, monospace" font-size="14" font-weight="600" fill="#cba6f7">$ entropy --user winniepwned</text>
<text x="812" y="38" text-anchor="end" font-family="JetBrains Mono, ui-monospace, SFMono-Regular, Menlo, monospace" font-size="11" fill="#6c7086">2026-07-15</text>
<text x="28" y="66" font-family="JetBrains Mono, ui-monospace, SFMono-Regular, Menlo, monospace" font-size="9.5" fill="#6c7086">/dev/urandom — where the bear goes to think</text>
<rect x="28.00" y="74.00" width="7.32" height="7.32" rx="1" fill="#b4befe" opacity="0.515"/>
<rect x="36.52" y="74.00" width="7.32" height="7.32" rx="1" fill="#313244" opacity="0.218"/>
<rect x="45.04" y="74.00" width="7.32" height="7.32" rx="1" fill="#cba6f7" opacity="0.732"/>
<rect x="62.09" y="74.00" width="7.32" height="7.32" rx="1" fill="#b4befe" opacity="0.484"/>
<rect x="70.61" y="74.00" width="7.32" height="7.32" rx="1" fill="#313244" opacity="0.166"/>
<rect x="87.65" y="74.00" width="7.32" height="7.32" rx="1" fill="#313244" opacity="0.149"/>
<rect x="96.17" y="74.00" width="7.32" height="7.32" rx="1" fill="#b4befe" opacity="0.551"/>
<rect x="104.70" y="74.00" width="7.32" height="7.32" rx="1" fill="#313244" opacity="0.162"/>
<rect x="113.22" y="74.00" width="7.32" height="7.32" rx="1" fill="#b4befe" opacity="0.388"/>
<rect x="121.74" y="74.00" width="7.32" height="7.32" rx="1" fill="#b4befe" opacity="0.676"/>
<rect x="130.26" y="74.00" width="7.32" height="7.32" rx="1" fill="#313244" opacity="0.148"/>
<rect x="138.78" y="74.00" width="7.32" height="7.32" rx="1" fill="#313244" opacity="0.198"/>
<rect x="147.30" y="74.00" width="7.32" height="7.32" rx="1" fill="#313244" opacity="0.164"/>
<rect x="164.35" y="74.00" width="7.32" height="7.32" rx="1" fill="#b4befe" opacity="0.564"/>
<rect x="172.87" y="74.00" width="7.32" height="7.32" rx="1" fill="#cba6f7" opacity="0.802"/>
<rect x="181.39" y="74.00" width="7.32" height="7.32" rx="1" fill="#313244" opacity="0.262"/>
<rect x="189.91" y="74.00" width="7.32" height="7.32" rx="1" fill="#b4befe" opacity="0.369"/>
<rect x="198.43" y="74.00" width="7.32" height="7.32" rx="1" fill="#b4befe" opacity="0.526"/>
<rect x="206.96" y="74.00" width="7.32" height="7.32" rx="1" fill="#313244" opacity="0.32"/>
<rect x="215.48" y="74.00" width="7.32" height="7.32" rx="1" fill="#b4befe" opacity="0.528"/>
<rect x="232.52" y="74.00" width="7.32" height="7.32" rx="1" fill="#b4befe" opacity="0.595"/>
<rect x="241.04" y="74.00" width="7.32" height="7.32" rx="1" fill="#313244" opacity="0.15"/>
<rect x="249.57" y="74.00" width="7.32" height="7.32" rx="1" fill="#b4befe" opacity="0.524"/>
<rect x="258.09" y="74.00" width="7.32" height="7.32" rx="1" fill="#b4befe" opacity="0.442"/>
<rect x="283.65" y="74.00" width="7.32" height="7.32" rx="1" fill="#313244" opacity="0.324"/>
<rect x="292.17" y="74.00" width="7.32" height="7.32" rx="1" fill="#cba6f7" opacity="0.784"/>
<rect x="300.70" y="74.00" width="7.32" height="7.32" rx="1" fill="#cba6f7" opacity="0.787"/>
<rect x="317.74" y="74.00" width="7.32" height="7.32" rx="1" fill="#b4befe" opacity="0.536"/>
<rect x="326.26" y="74.00" width="7.32" height="7.32" rx="1" fill="#313244" opacity="0.117"/>
<rect x="334.78" y="74.00" width="7.32" height="7.32" rx="1" fill="#cba6f7" opacity="0.774"/>
<rect x="351.83" y="74.00" width="7.32" height="7.32" rx="1" fill="#313244" opacity="0.281"/>
<rect x="368.87" y="74.00" width="7.32" height="7.32" rx="1" fill="#b4befe" opacity="0.648"/>
<rect x="377.39" y="74.00" width="7.32" height="7.32" rx="1" fill="#313244" opacity="0.136"/>
<rect x="385.91" y="74.00" width="7.32" height="7.32" rx="1" fill="#b4befe" opacity="0.395"/>
<rect x="402.96" y="74.00" width="7.32" height="7.32" rx="1" fill="#313244" opacity="0.121"/>
<rect x="411.48" y="74.00" width="7.32" height="7.32" rx="1" fill="#313244" opacity="0.154"/>
<rect x="420.00" y="74.00" width="7.32" height="7.32" rx="1" fill="#313244" opacity="0.303"/>
<rect x="445.57" y="74.00" width="7.32" height="7.32" rx="1" fill="#313244" opacity="0.148"/>
<rect x="471.13" y="74.00" width="7.32" height="7.32" rx="1" fill="#313244" opacity="0.117"/>
<rect x="479.65" y="74.00" width="7.32" height="7.32" rx="1" fill="#b4befe" opacity="0.427"/>
<rect x="505.22" y="74.00" width="7.32" height="7.32" rx="1" fill="#313244" opacity="0.127"/>
<rect x="513.74" y="74.00" width="7.32" height="7.32" rx="1" fill="#313244" opacity="0.119"/>
<rect x="522.26" y="74.00" width="7.32" height="7.32" rx="1" fill="#b4befe" opacity="0.416"/>
<rect x="539.30" y="74.00" width="7.32" height="7.32" rx="1" fill="#b4befe" opacity="0.648"/>
<rect x="547.83" y="74.00" width="7.32" height="7.32" rx="1" fill="#313244" opacity="0.28"/>
<rect x="564.87" y="74.00" width="7.32" height="7.32" rx="1" fill="#313244" opacity="0.211"/>
<rect x="573.39" y="74.00" width="7.32" height="7.32" rx="1" fill="#313244" opacity="0.249"/>
<rect x="581.91" y="74.00" width="7.32" height="7.32" rx="1" fill="#313244" opacity="0.245"/>
<rect x="590.43" y="74.00" width="7.32" height="7.32" rx="1" fill="#313244" opacity="0.124"/>
<rect x="607.48" y="74.00" width="7.32" height="7.32" rx="1" fill="#313244" opacity="0.293"/>
<rect x="624.52" y="74.00" width="7.32" height="7.32" rx="1" fill="#b4befe" opacity="0.485"/>
<rect x="633.04" y="74.00" width="7.32" height="7.32" rx="1" fill="#b4befe" opacity="0.697"/>
<rect x="641.57" y="74.00" width="7.32" height="7.32" rx="1" fill="#313244" opacity="0.264"/>
<rect x="650.09" y="74.00" width="7.32" height="7.32" rx="1" fill="#b4befe" opacity="0.449"/>
<rect x="658.61" y="74.00" width="7.32" height="7.32" rx="1" fill="#313244" opacity="0.12"/>
<rect x="675.65" y="74.00" width="7.32" height="7.32" rx="1" fill="#313244" opacity="0.169"/>
<rect x="684.17" y="74.00" width="7.32" height="7.32" rx="1" fill="#313244" opacity="0.15"/>
<rect x="692.70" y="74.00" width="7.32" height="7.32" rx="1" fill="#cba6f7" opacity="0.765"/>
<rect x="718.26" y="74.00" width="7.32" height="7.32" rx="1" fill="#313244" opacity="0.154"/>
<rect x="735.30" y="74.00" width="7.32" height="7.32" rx="1" fill="#cba6f7" opacity="0.952"/>
<rect x="743.83" y="74.00" width="7.32" height="7.32" rx="1" fill="#cba6f7" opacity="0.837"/>
<rect x="752.35" y="74.00" width="7.32" height="7.32" rx="1" fill="#313244" opacity="0.182"/>
<rect x="760.87" y="74.00" width="7.32" height="7.32" rx="1" fill="#b4befe" opacity="0.528"/>
<rect x="769.39" y="74.00" width="7.32" height="7.32" rx="1" fill="#b4befe" opacity="0.471"/>
<rect x="777.91" y="74.00" width="7.32" height="7.32" rx="1" fill="#cba6f7" opacity="0.885"/>
<rect x="803.48" y="74.00" width="7.32" height="7.32" rx="1" fill="#313244" opacity="0.319"/>
<rect x="36.52" y="82.52" width="7.32" height="7.32" rx="1" fill="#cba6f7" opacity="0.78"/>
<rect x="62.09" y="82.52" width="7.32" height="7.32" rx="1" fill="#b4befe" opacity="0.688"/>
<rect x="70.61" y="82.52" width="7.32" height="7.32" rx="1" fill="#b4befe" opacity="0.441"/>
<rect x="79.13" y="82.52" width="7.32" height="7.32" rx="1" fill="#313244" opacity="0.146"/>
<rect x="104.70" y="82.52" width="7.32" height="7.32" rx="1" fill="#b4befe" opacity="0.411"/>
<rect x="113.22" y="82.52" width="7.32" height="7.32" rx="1" fill="#cba6f7" opacity="0.993"/>
<rect x="121.74" y="82.52" width="7.32" height="7.32" rx="1" fill="#b4befe" opacity="0.36"/>
<rect x="155.83" y="82.52" width="7.32" height="7.32" rx="1" fill="#b4befe" opacity="0.669"/>
<rect x="164.35" y="82.52" width="7.32" height="7.32" rx="1" fill="#313244" opacity="0.338"/>
<rect x="172.87" y="82.52" width="7.32" height="7.32" rx="1" fill="#313244" opacity="0.273"/>
<rect x="198.43" y="82.52" width="7.32" height="7.32" rx="1" fill="#313244" opacity="0.241"/>
<rect x="224.00" y="82.52" width="7.32" height="7.32" rx="1" fill="#b4befe" opacity="0.656"/>
<rect x="232.52" y="82.52" width="7.32" height="7.32" rx="1" fill="#313244" opacity="0.306"/>
<rect x="241.04" y="82.52" width="7.32" height="7.32" rx="1" fill="#313244" opacity="0.253"/>
<rect x="258.09" y="82.52" width="7.32" height="7.32" rx="1" fill="#313244" opacity="0.303"/>
<rect x="266.61" y="82.52" width="7.32" height="7.32" rx="1" fill="#313244" opacity="0.31"/>
<rect x="275.13" y="82.52" width="7.32" height="7.32" rx="1" fill="#cba6f7" opacity="0.846"/>
<rect x="292.17" y="82.52" width="7.32" height="7.32" rx="1" fill="#313244" opacity="0.16"/>
<rect x="309.22" y="82.52" width="7.32" height="7.32" rx="1" fill="#313244" opacity="0.178"/>
<rect x="326.26" y="82.52" width="7.32" height="7.32" rx="1" fill="#cba6f7" opacity="0.768"/>
<rect x="334.78" y="82.52" width="7.32" height="7.32" rx="1" fill="#cba6f7" opacity="0.775"/>
<rect x="351.83" y="82.52" width="7.32" height="7.32" rx="1" fill="#b4befe" opacity="0.404"/>
<rect x="360.35" y="82.52" width="7.32" height="7.32" rx="1" fill="#b4befe" opacity="0.378"/>
<rect x="368.87" y="82.52" width="7.32" height="7.32" rx="1" fill="#313244" opacity="0.281"/>
<rect x="377.39" y="82.52" width="7.32" height="7.32" rx="1" fill="#b4befe" opacity="0.683"/>
<rect x="394.43" y="82.52" width="7.32" height="7.32" rx="1" fill="#cba6f7" opacity="0.787"/>
<rect x="411.48" y="82.52" width="7.32" height="7.32" rx="1" fill="#313244" opacity="0.12"/>
<rect x="437.04" y="82.52" width="7.32" height="7.32" rx="1" fill="#313244" opacity="0.31"/>
<rect x="445.57" y="82.52" width="7.32" height="7.32" rx="1" fill="#b4befe" opacity="0.403"/>
<rect x="462.61" y="82.52" width="7.32" height="7.32" rx="1" fill="#313244" opacity="0.282"/>
<rect x="471.13" y="82.52" width="7.32" height="7.32" rx="1" fill="#b4befe" opacity="0.502"/>
<rect x="479.65" y="82.52" width="7.32" height="7.32" rx="1" fill="#b4befe" opacity="0.629"/>
<rect x="488.17" y="82.52" width="7.32" height="7.32" rx="1" fill="#b4befe" opacity="0.346"/>
<rect x="496.70" y="82.52" width="7.32" height="7.32" rx="1" fill="#313244" opacity="0.171"/>
<rect x="505.22" y="82.52" width="7.32" height="7.32" rx="1" fill="#313244" opacity="0.171"/>
<rect x="513.74" y="82.52" width="7.32" height="7.32" rx="1" fill="#313244" opacity="0.124"/>
<rect x="522.26" y="82.52" width="7.32" height="7.32" rx="1" fill="#cba6f7" opacity="0.957"/>
<rect x="530.78" y="82.52" width="7.32" height="7.32" rx="1" fill="#313244" opacity="0.225"/>
<rect x="547.83" y="82.52" width="7.32" height="7.32" rx="1" fill="#313244" opacity="0.168"/>
<rect x="564.87" y="82.52" width="7.32" height="7.32" rx="1" fill="#313244" opacity="0.239"/>
<rect x="573.39" y="82.52" width="7.32" height="7.32" rx="1" fill="#b4befe" opacity="0.417"/>
<rect x="590.43" y="82.52" width="7.32" height="7.32" rx="1" fill="#313244" opacity="0.259"/>
<rect x="616.00" y="82.52" width="7.32" height="7.32" rx="1" fill="#b4befe" opacity="0.394"/>
<rect x="633.04" y="82.52" width="7.32" height="7.32" rx="1" fill="#b4befe" opacity="0.485"/>
<rect x="658.61" y="82.52" width="7.32" height="7.32" rx="1" fill="#cba6f7" opacity="0.748"/>
<rect x="675.65" y="82.52" width="7.32" height="7.32" rx="1" fill="#cba6f7" opacity="0.892"/>
<rect x="692.70" y="82.52" width="7.32" height="7.32" rx="1" fill="#313244" opacity="0.14"/>
<rect x="701.22" y="82.52" width="7.32" height="7.32" rx="1" fill="#cba6f7" opacity="0.735"/>
<rect x="709.74" y="82.52" width="7.32" height="7.32" rx="1" fill="#313244" opacity="0.265"/>
<rect x="718.26" y="82.52" width="7.32" height="7.32" rx="1" fill="#b4befe" opacity="0.579"/>
<rect x="726.78" y="82.52" width="7.32" height="7.32" rx="1" fill="#b4befe" opacity="0.671"/>
<rect x="735.30" y="82.52" width="7.32" height="7.32" rx="1" fill="#313244" opacity="0.122"/>
<rect x="752.35" y="82.52" width="7.32" height="7.32" rx="1" fill="#313244" opacity="0.206"/>
<rect x="760.87" y="82.52" width="7.32" height="7.32" rx="1" fill="#b4befe" opacity="0.494"/>
<rect x="777.91" y="82.52" width="7.32" height="7.32" rx="1" fill="#313244" opacity="0.117"/>
<rect x="786.43" y="82.52" width="7.32" height="7.32" rx="1" fill="#313244" opacity="0.184"/>
<rect x="794.96" y="82.52" width="7.32" height="7.32" rx="1" fill="#b4befe" opacity="0.433"/>
<rect x="28.00" y="91.04" width="7.32" height="7.32" rx="1" fill="#cba6f7" opacity="0.885"/>
<rect x="36.52" y="91.04" width="7.32" height="7.32" rx="1" fill="#b4befe" opacity="0.65"/>
<rect x="45.04" y="91.04" width="7.32" height="7.32" rx="1" fill="#cba6f7" opacity="0.918"/>
<rect x="53.57" y="91.04" width="7.32" height="7.32" rx="1" fill="#cba6f7" opacity="0.827"/>
<rect x="70.61" y="91.04" width="7.32" height="7.32" rx="1" fill="#b4befe" opacity="0.511"/>
<rect x="79.13" y="91.04" width="7.32" height="7.32" rx="1" fill="#313244" opacity="0.337"/>
<rect x="87.65" y="91.04" width="7.32" height="7.32" rx="1" fill="#b4befe" opacity="0.373"/>
<rect x="104.70" y="91.04" width="7.32" height="7.32" rx="1" fill="#313244" opacity="0.149"/>
<rect x="113.22" y="91.04" width="7.32" height="7.32" rx="1" fill="#b4befe" opacity="0.396"/>
<rect x="121.74" y="91.04" width="7.32" height="7.32" rx="1" fill="#313244" opacity="0.129"/>
<rect x="138.78" y="91.04" width="7.32" height="7.32" rx="1" fill="#b4befe" opacity="0.482"/>
<rect x="147.30" y="91.04" width="7.32" height="7.32" rx="1" fill="#b4befe" opacity="0.424"/>
<rect x="155.83" y="91.04" width="7.32" height="7.32" rx="1" fill="#313244" opacity="0.121"/>
<rect x="181.39" y="91.04" width="7.32" height="7.32" rx="1" fill="#313244" opacity="0.127"/>
<rect x="189.91" y="91.04" width="7.32" height="7.32" rx="1" fill="#b4befe" opacity="0.353"/>
<rect x="198.43" y="91.04" width="7.32" height="7.32" rx="1" fill="#313244" opacity="0.174"/>
<rect x="215.48" y="91.04" width="7.32" height="7.32" rx="1" fill="#313244" opacity="0.13"/>
<rect x="224.00" y="91.04" width="7.32" height="7.32" rx="1" fill="#313244" opacity="0.117"/>
<rect x="232.52" y="91.04" width="7.32" height="7.32" rx="1" fill="#b4befe" opacity="0.645"/>
<rect x="258.09" y="91.04" width="7.32" height="7.32" rx="1" fill="#b4befe" opacity="0.426"/>
<rect x="266.61" y="91.04" width="7.32" height="7.32" rx="1" fill="#313244" opacity="0.134"/>
<rect x="275.13" y="91.04" width="7.32" height="7.32" rx="1" fill="#b4befe" opacity="0.372"/>
<rect x="283.65" y="91.04" width="7.32" height="7.32" rx="1" fill="#b4befe" opacity="0.624"/>
<rect x="300.70" y="91.04" width="7.32" height="7.32" rx="1" fill="#313244" opacity="0.232"/>
<rect x="309.22" y="91.04" width="7.32" height="7.32" rx="1" fill="#b4befe" opacity="0.56"/>
<rect x="326.26" y="91.04" width="7.32" height="7.32" rx="1" fill="#b4befe" opacity="0.696"/>
<rect x="334.78" y="91.04" width="7.32" height="7.32" rx="1" fill="#b4befe" opacity="0.539"/>
<rect x="343.30" y="91.04" width="7.32" height="7.32" rx="1" fill="#313244" opacity="0.214"/>
<rect x="368.87" y="91.04" width="7.32" height="7.32" rx="1" fill="#b4befe" opacity="0.49"/>
<rect x="377.39" y="91.04" width="7.32" height="7.32" rx="1" fill="#b4befe" opacity="0.57"/>
<rect x="385.91" y="91.04" width="7.32" height="7.32" rx="1" fill="#b4befe" opacity="0.348"/>
<rect x="394.43" y="91.04" width="7.32" height="7.32" rx="1" fill="#313244" opacity="0.167"/>
<rect x="402.96" y="91.04" width="7.32" height="7.32" rx="1" fill="#313244" opacity="0.309"/>
<rect x="411.48" y="91.04" width="7.32" height="7.32" rx="1" fill="#313244" opacity="0.129"/>
<rect x="437.04" y="91.04" width="7.32" height="7.32" rx="1" fill="#b4befe" opacity="0.619"/>
<rect x="454.09" y="91.04" width="7.32" height="7.32" rx="1" fill="#b4befe" opacity="0.367"/>
<rect x="462.61" y="91.04" width="7.32" height="7.32" rx="1" fill="#b4befe" opacity="0.406"/>
<rect x="479.65" y="91.04" width="7.32" height="7.32" rx="1" fill="#b4befe" opacity="0.461"/>
<rect x="488.17" y="91.04" width="7.32" height="7.32" rx="1" fill="#cba6f7" opacity="0.939"/>
<rect x="496.70" y="91.04" width="7.32" height="7.32" rx="1" fill="#313244" opacity="0.15"/>
<rect x="505.22" y="91.04" width="7.32" height="7.32" rx="1" fill="#313244" opacity="0.194"/>
<rect x="530.78" y="91.04" width="7.32" height="7.32" rx="1" fill="#b4befe" opacity="0.677"/>
<rect x="539.30" y="91.04" width="7.32" height="7.32" rx="1" fill="#b4befe" opacity="0.381"/>
<rect x="573.39" y="91.04" width="7.32" height="7.32" rx="1" fill="#b4befe" opacity="0.367"/>
<rect x="581.91" y="91.04" width="7.32" height="7.32" rx="1" fill="#313244" opacity="0.173"/>
<rect x="590.43" y="91.04" width="7.32" height="7.32" rx="1" fill="#313244" opacity="0.154"/>
<rect x="607.48" y="91.04" width="7.32" height="7.32" rx="1" fill="#313244" opacity="0.125"/>
<rect x="616.00" y="91.04" width="7.32" height="7.32" rx="1" fill="#313244" opacity="0.118"/>
<rect x="624.52" y="91.04" width="7.32" height="7.32" rx="1" fill="#b4befe" opacity="0.469"/>
<rect x="633.04" y="91.04" width="7.32" height="7.32" rx="1" fill="#cba6f7" opacity="0.902"/>
<rect x="650.09" y="91.04" width="7.32" height="7.32" rx="1" fill="#313244" opacity="0.212"/>
<rect x="667.13" y="91.04" width="7.32" height="7.32" rx="1" fill="#b4befe" opacity="0.531"/>
<rect x="675.65" y="91.04" width="7.32" height="7.32" rx="1" fill="#313244" opacity="0.161"/>
<rect x="684.17" y="91.04" width="7.32" height="7.32" rx="1" fill="#313244" opacity="0.181"/>
<rect x="692.70" y="91.04" width="7.32" height="7.32" rx="1" fill="#b4befe" opacity="0.561"/>
<rect x="709.74" y="91.04" width="7.32" height="7.32" rx="1" fill="#b4befe" opacity="0.604"/>
<rect x="726.78" y="91.04" width="7.32" height="7.32" rx="1" fill="#b4befe" opacity="0.632"/>
<rect x="735.30" y="91.04" width="7.32" height="7.32" rx="1" fill="#313244" opacity="0.141"/>
<rect x="752.35" y="91.04" width="7.32" height="7.32" rx="1" fill="#313244" opacity="0.306"/>
<rect x="760.87" y="91.04" width="7.32" height="7.32" rx="1" fill="#b4befe" opacity="0.467"/>
<rect x="786.43" y="91.04" width="7.32" height="7.32" rx="1" fill="#b4befe" opacity="0.363"/>

<g>
  <text x="28" y="149" font-family="JetBrains Mono, ui-monospace, SFMono-Regular, Menlo, monospace" font-size="12" fill="#a6adc8">weekdays</text>
  <rect x="124.00" y="140" width="11.75" height="11" rx="1" fill="#cba6f7" opacity="1.0"/><rect x="137.35" y="140" width="11.75" height="11" rx="1" fill="#cba6f7" opacity="1.0"/><rect x="150.70" y="140" width="11.75" height="11" rx="1" fill="#cba6f7" opacity="1.0"/><rect x="164.05" y="140" width="11.75" height="11" rx="1" fill="#cba6f7" opacity="1.0"/><rect x="177.40" y="140" width="11.75" height="11" rx="1" fill="#cba6f7" opacity="1.0"/><rect x="190.75" y="140" width="11.75" height="11" rx="1" fill="#cba6f7" opacity="1.0"/><rect x="204.10" y="140" width="11.75" height="11" rx="1" fill="#cba6f7" opacity="1.0"/><rect x="217.45" y="140" width="11.75" height="11" rx="1" fill="#cba6f7" opacity="1.0"/><rect x="230.80" y="140" width="11.75" height="11" rx="1" fill="#cba6f7" opacity="1.0"/><rect x="244.15" y="140" width="11.75" height="11" rx="1" fill="#cba6f7" opacity="1.0"/><rect x="257.50" y="140" width="11.75" height="11" rx="1" fill="#cba6f7" opacity="1.0"/><rect x="270.85" y="140" width="11.75" height="11" rx="1" fill="#cba6f7" opacity="1.0"/><rect x="284.20" y="140" width="11.75" height="11" rx="1" fill="#cba6f7" opacity="1.0"/><rect x="297.55" y="140" width="11.75" height="11" rx="1" fill="#cba6f7" opacity="1.0"/><rect x="310.90" y="140" width="11.75" height="11" rx="1" fill="#cba6f7" opacity="1.0"/><rect x="324.25" y="140" width="11.75" height="11" rx="1" fill="#cba6f7" opacity="1.0"/><rect x="337.60" y="140" width="11.75" height="11" rx="1" fill="#cba6f7" opacity="1.0"/><rect x="350.95" y="140" width="11.75" height="11" rx="1" fill="#cba6f7" opacity="1.0"/><rect x="364.30" y="140" width="11.75" height="11" rx="1" fill="#cba6f7" opacity="1.0"/><rect x="377.65" y="140" width="11.75" height="11" rx="1" fill="#cba6f7" opacity="1.0"/><rect x="391.00" y="140" width="11.75" height="11" rx="1" fill="#cba6f7" opacity="1.0"/><rect x="404.35" y="140" width="11.75" height="11" rx="1" fill="#cba6f7" opacity="1.0"/><rect x="417.70" y="140" width="11.75" height="11" rx="1" fill="#cba6f7" opacity="1.0"/><rect x="431.05" y="140" width="11.75" height="11" rx="1" fill="#cba6f7" opacity="1.0"/><rect x="444.40" y="140" width="11.75" height="11" rx="1" fill="#cba6f7" opacity="1.0"/><rect x="457.75" y="140" width="11.75" height="11" rx="1" fill="#cba6f7" opacity="1.0"/><rect x="471.10" y="140" width="11.75" height="11" rx="1" fill="#cba6f7" opacity="1.0"/><rect x="484.45" y="140" width="11.75" height="11" rx="1" fill="#cba6f7" opacity="1.0"/><rect x="497.80" y="140" width="11.75" height="11" rx="1" fill="#cba6f7" opacity="1.0"/><rect x="511.15" y="140" width="11.75" height="11" rx="1" fill="#cba6f7" opacity="1.0"/><rect x="524.50" y="140" width="11.75" height="11" rx="1" fill="#cba6f7" opacity="1.0"/><rect x="537.85" y="140" width="11.75" height="11" rx="1" fill="#cba6f7" opacity="1.0"/><rect x="551.20" y="140" width="11.75" height="11" rx="1" fill="#cba6f7" opacity="1.0"/><rect x="564.55" y="140" width="11.75" height="11" rx="1" fill="#cba6f7" opacity="1.0"/><rect x="577.90" y="140" width="11.75" height="11" rx="1" fill="#cba6f7" opacity="1.0"/><rect x="591.25" y="140" width="11.75" height="11" rx="1" fill="#cba6f7" opacity="1.0"/><rect x="604.60" y="140" width="11.75" height="11" rx="1" fill="#cba6f7" opacity="1.0"/><rect x="617.95" y="140" width="11.75" height="11" rx="1" fill="#313244" opacity="0.45"/><rect x="631.30" y="140" width="11.75" height="11" rx="1" fill="#313244" opacity="0.45"/><rect x="644.65" y="140" width="11.75" height="11" rx="1" fill="#313244" opacity="0.45"/>
  <text x="674" y="149" font-family="JetBrains Mono, ui-monospace, SFMono-Regular, Menlo, monospace" font-size="12" fill="#cdd6f4">2.62</text>
  <text x="712" y="149" font-family="JetBrains Mono, ui-monospace, SFMono-Regular, Menlo, monospace" font-size="12" fill="#6c7086">/ 2.81 bits</text>
  <text x="124" y="166" font-family="JetBrains Mono, ui-monospace, SFMono-Regular, Menlo, monospace" font-size="9.5" fill="#6c7086">82 contributions across 7 days</text>
</g>

<g>
  <text x="28" y="195" font-family="JetBrains Mono, ui-monospace, SFMono-Regular, Menlo, monospace" font-size="12" fill="#a6adc8">the year</text>
  <rect x="124.00" y="186" width="11.75" height="11" rx="1" fill="#cba6f7" opacity="1.0"/><rect x="137.35" y="186" width="11.75" height="11" rx="1" fill="#cba6f7" opacity="1.0"/><rect x="150.70" y="186" width="11.75" height="11" rx="1" fill="#cba6f7" opacity="1.0"/><rect x="164.05" y="186" width="11.75" height="11" rx="1" fill="#cba6f7" opacity="1.0"/><rect x="177.40" y="186" width="11.75" height="11" rx="1" fill="#cba6f7" opacity="1.0"/><rect x="190.75" y="186" width="11.75" height="11" rx="1" fill="#cba6f7" opacity="1.0"/><rect x="204.10" y="186" width="11.75" height="11" rx="1" fill="#cba6f7" opacity="1.0"/><rect x="217.45" y="186" width="11.75" height="11" rx="1" fill="#cba6f7" opacity="1.0"/><rect x="230.80" y="186" width="11.75" height="11" rx="1" fill="#cba6f7" opacity="1.0"/><rect x="244.15" y="186" width="11.75" height="11" rx="1" fill="#cba6f7" opacity="1.0"/><rect x="257.50" y="186" width="11.75" height="11" rx="1" fill="#cba6f7" opacity="1.0"/><rect x="270.85" y="186" width="11.75" height="11" rx="1" fill="#cba6f7" opacity="1.0"/><rect x="284.20" y="186" width="11.75" height="11" rx="1" fill="#cba6f7" opacity="1.0"/><rect x="297.55" y="186" width="11.75" height="11" rx="1" fill="#cba6f7" opacity="1.0"/><rect x="310.90" y="186" width="11.75" height="11" rx="1" fill="#cba6f7" opacity="1.0"/><rect x="324.25" y="186" width="11.75" height="11" rx="1" fill="#cba6f7" opacity="1.0"/><rect x="337.60" y="186" width="11.75" height="11" rx="1" fill="#cba6f7" opacity="1.0"/><rect x="350.95" y="186" width="11.75" height="11" rx="1" fill="#313244" opacity="0.45"/><rect x="364.30" y="186" width="11.75" height="11" rx="1" fill="#313244" opacity="0.45"/><rect x="377.65" y="186" width="11.75" height="11" rx="1" fill="#313244" opacity="0.45"/><rect x="391.00" y="186" width="11.75" height="11" rx="1" fill="#313244" opacity="0.45"/><rect x="404.35" y="186" width="11.75" height="11" rx="1" fill="#313244" opacity="0.45"/><rect x="417.70" y="186" width="11.75" height="11" rx="1" fill="#313244" opacity="0.45"/><rect x="431.05" y="186" width="11.75" height="11" rx="1" fill="#313244" opacity="0.45"/><rect x="444.40" y="186" width="11.75" height="11" rx="1" fill="#313244" opacity="0.45"/><rect x="457.75" y="186" width="11.75" height="11" rx="1" fill="#313244" opacity="0.45"/><rect x="471.10" y="186" width="11.75" height="11" rx="1" fill="#313244" opacity="0.45"/><rect x="484.45" y="186" width="11.75" height="11" rx="1" fill="#313244" opacity="0.45"/><rect x="497.80" y="186" width="11.75" height="11" rx="1" fill="#313244" opacity="0.45"/><rect x="511.15" y="186" width="11.75" height="11" rx="1" fill="#313244" opacity="0.45"/><rect x="524.50" y="186" width="11.75" height="11" rx="1" fill="#313244" opacity="0.45"/><rect x="537.85" y="186" width="11.75" height="11" rx="1" fill="#313244" opacity="0.45"/><rect x="551.20" y="186" width="11.75" height="11" rx="1" fill="#313244" opacity="0.45"/><rect x="564.55" y="186" width="11.75" height="11" rx="1" fill="#313244" opacity="0.45"/><rect x="577.90" y="186" width="11.75" height="11" rx="1" fill="#313244" opacity="0.45"/><rect x="591.25" y="186" width="11.75" height="11" rx="1" fill="#313244" opacity="0.45"/><rect x="604.60" y="186" width="11.75" height="11" rx="1" fill="#313244" opacity="0.45"/><rect x="617.95" y="186" width="11.75" height="11" rx="1" fill="#313244" opacity="0.45"/><rect x="631.30" y="186" width="11.75" height="11" rx="1" fill="#313244" opacity="0.45"/><rect x="644.65" y="186" width="11.75" height="11" rx="1" fill="#313244" opacity="0.45"/>
  <text x="674" y="195" font-family="JetBrains Mono, ui-monospace, SFMono-Regular, Menlo, monospace" font-size="12" fill="#cdd6f4">3.73</text>
  <text x="712" y="195" font-family="JetBrains Mono, ui-monospace, SFMono-Regular, Menlo, monospace" font-size="12" fill="#6c7086">/ 8.52 bits</text>
  <text x="124" y="212" font-family="JetBrains Mono, ui-monospace, SFMono-Regular, Menlo, monospace" font-size="9.5" fill="#6c7086">368 days observed</text>
</g>

<g>
  <text x="28" y="241" font-family="JetBrains Mono, ui-monospace, SFMono-Regular, Menlo, monospace" font-size="12" fill="#a6adc8">languages</text>
  <rect x="124.00" y="232" width="11.75" height="11" rx="1" fill="#313244" opacity="0.45"/><rect x="137.35" y="232" width="11.75" height="11" rx="1" fill="#313244" opacity="0.45"/><rect x="150.70" y="232" width="11.75" height="11" rx="1" fill="#313244" opacity="0.45"/><rect x="164.05" y="232" width="11.75" height="11" rx="1" fill="#313244" opacity="0.45"/><rect x="177.40" y="232" width="11.75" height="11" rx="1" fill="#313244" opacity="0.45"/><rect x="190.75" y="232" width="11.75" height="11" rx="1" fill="#313244" opacity="0.45"/><rect x="204.10" y="232" width="11.75" height="11" rx="1" fill="#313244" opacity="0.45"/><rect x="217.45" y="232" width="11.75" height="11" rx="1" fill="#313244" opacity="0.45"/><rect x="230.80" y="232" width="11.75" height="11" rx="1" fill="#313244" opacity="0.45"/><rect x="244.15" y="232" width="11.75" height="11" rx="1" fill="#313244" opacity="0.45"/><rect x="257.50" y="232" width="11.75" height="11" rx="1" fill="#313244" opacity="0.45"/><rect x="270.85" y="232" width="11.75" height="11" rx="1" fill="#313244" opacity="0.45"/><rect x="284.20" y="232" width="11.75" height="11" rx="1" fill="#313244" opacity="0.45"/><rect x="297.55" y="232" width="11.75" height="11" rx="1" fill="#313244" opacity="0.45"/><rect x="310.90" y="232" width="11.75" height="11" rx="1" fill="#313244" opacity="0.45"/><rect x="324.25" y="232" width="11.75" height="11" rx="1" fill="#313244" opacity="0.45"/><rect x="337.60" y="232" width="11.75" height="11" rx="1" fill="#313244" opacity="0.45"/><rect x="350.95" y="232" width="11.75" height="11" rx="1" fill="#313244" opacity="0.45"/><rect x="364.30" y="232" width="11.75" height="11" rx="1" fill="#313244" opacity="0.45"/><rect x="377.65" y="232" width="11.75" height="11" rx="1" fill="#313244" opacity="0.45"/><rect x="391.00" y="232" width="11.75" height="11" rx="1" fill="#313244" opacity="0.45"/><rect x="404.35" y="232" width="11.75" height="11" rx="1" fill="#313244" opacity="0.45"/><rect x="417.70" y="232" width="11.75" height="11" rx="1" fill="#313244" opacity="0.45"/><rect x="431.05" y="232" width="11.75" height="11" rx="1" fill="#313244" opacity="0.45"/><rect x="444.40" y="232" width="11.75" height="11" rx="1" fill="#313244" opacity="0.45"/><rect x="457.75" y="232" width="11.75" height="11" rx="1" fill="#313244" opacity="0.45"/><rect x="471.10" y="232" width="11.75" height="11" rx="1" fill="#313244" opacity="0.45"/><rect x="484.45" y="232" width="11.75" height="11" rx="1" fill="#313244" opacity="0.45"/><rect x="497.80" y="232" width="11.75" height="11" rx="1" fill="#313244" opacity="0.45"/><rect x="511.15" y="232" width="11.75" height="11" rx="1" fill="#313244" opacity="0.45"/><rect x="524.50" y="232" width="11.75" height="11" rx="1" fill="#313244" opacity="0.45"/><rect x="537.85" y="232" width="11.75" height="11" rx="1" fill="#313244" opacity="0.45"/><rect x="551.20" y="232" width="11.75" height="11" rx="1" fill="#313244" opacity="0.45"/><rect x="564.55" y="232" width="11.75" height="11" rx="1" fill="#313244" opacity="0.45"/><rect x="577.90" y="232" width="11.75" height="11" rx="1" fill="#313244" opacity="0.45"/><rect x="591.25" y="232" width="11.75" height="11" rx="1" fill="#313244" opacity="0.45"/><rect x="604.60" y="232" width="11.75" height="11" rx="1" fill="#313244" opacity="0.45"/><rect x="617.95" y="232" width="11.75" height="11" rx="1" fill="#313244" opacity="0.45"/><rect x="631.30" y="232" width="11.75" height="11" rx="1" fill="#313244" opacity="0.45"/><rect x="644.65" y="232" width="11.75" height="11" rx="1" fill="#313244" opacity="0.45"/>
  <text x="674" y="241" font-family="JetBrains Mono, ui-monospace, SFMono-Regular, Menlo, monospace" font-size="12" fill="#cdd6f4">0.00</text>
  <text x="712" y="241" font-family="JetBrains Mono, ui-monospace, SFMono-Regular, Menlo, monospace" font-size="12" fill="#6c7086">/ 0.00 bits</text>
  <text x="124" y="258" font-family="JetBrains Mono, ui-monospace, SFMono-Regular, Menlo, monospace" font-size="9.5" fill="#6c7086">—</text>
</g>
<line x1="28" y1="264" x2="812" y2="264" stroke="#313244"/>
<text x="28" y="283" font-family="JetBrains Mono, ui-monospace, SFMono-Regular, Menlo, monospace" font-size="11" fill="#f5c2e7">the bear is a creature of routine. this is a vulnerability.</text>
<text x="812" y="283" text-anchor="end" font-family="JetBrains Mono, ui-monospace, SFMono-Regular, Menlo, monospace" font-size="11" fill="#6c7086">disorder: 46%</text>
</svg>