<svg xmlns="http://www.w3.org/2000/svg" viewBox="0 0 840 300" width="840" height="300" role="img" aria-label="entropy report">
<rect width="840" height="300" rx="10" fill="#1e1e2e"/>
<rect x="0.5" y="0.5" width="839" height="299" rx="10" fill="none" stroke="#313244"/>
<text x="28" y="38" font-family="JetBrains Mono, ui-monospace, SFMono-Regular, Menlo, monospace" font-size="14" font-weight="600" fill="#cba6f7">$ entropy --user winniepwned</text>
<text x="812" y="38" text-anchor="end" font-family="JetBrains Mono, ui-monospace, SFMono-Regular, Menlo, monospace" font-size="11" fill="#6c7086">2026-07-23</text>
<text x="28" y="66" font-family="JetBrains Mono, ui-monospace, SFMono-Regular, Menlo, monospace" font-size="9.5" fill="#6c7086">/dev/urandom — where the bear goes to think</text>
<rect x="28.00" y="74.00" width="7.32" height="7.32" rx="1" fill="#313244" opacity="0.221"/>
<rect x="45.04" y="74.00" width="7.32" height="7.32" rx="1" fill="#313244" opacity="0.267"/>
<rect x="104.70" y="74.00" width="7.32" height="7.32" rx="1" fill="#b4befe" opacity="0.636"/>
<rect x="121.74" y="74.00" width="7.32" height="7.32" rx="1" fill="#b4befe" opacity="0.626"/>
<rect x="130.26" y="74.00" width="7.32" height="7.32" rx="1" fill="#b4befe" opacity="0.416"/>
<rect x="138.78" y="74.00" width="7.32" height="7.32" rx="1" fill="#b4befe" opacity="0.597"/>
<rect x="147.30" y="74.00" width="7.32" height="7.32" rx="1" fill="#b4befe" opacity="0.578"/>
<rect x="164.35" y="74.00" width="7.32" height="7.32" rx="1" fill="#313244" opacity="0.311"/>
<rect x="172.87" y="74.00" width="7.32" height="7.32" rx="1" fill="#b4befe" opacity="0.349"/>
<rect x="181.39" y="74.00" width="7.32" height="7.32" rx="1" fill="#313244" opacity="0.319"/>
<rect x="189.91" y="74.00" width="7.32" height="7.32" rx="1" fill="#313244" opacity="0.264"/>
<rect x="198.43" y="74.00" width="7.32" height="7.32" rx="1" fill="#cba6f7" opacity="0.949"/>
<rect x="206.96" y="74.00" width="7.32" height="7.32" rx="1" fill="#cba6f7" opacity="0.862"/>
<rect x="215.48" y="74.00" width="7.32" height="7.32" rx="1" fill="#313244" opacity="0.3"/>
<rect x="232.52" y="74.00" width="7.32" height="7.32" rx="1" fill="#313244" opacity="0.179"/>
<rect x="258.09" y="74.00" width="7.32" height="7.32" rx="1" fill="#313244" opacity="0.306"/>
<rect x="266.61" y="74.00" width="7.32" height="7.32" rx="1" fill="#b4befe" opacity="0.358"/>
<rect x="275.13" y="74.00" width="7.32" height="7.32" rx="1" fill="#b4befe" opacity="0.64"/>
<rect x="317.74" y="74.00" width="7.32" height="7.32" rx="1" fill="#cba6f7" opacity="0.832"/>
<rect x="334.78" y="74.00" width="7.32" height="7.32" rx="1" fill="#313244" opacity="0.134"/>
<rect x="343.30" y="74.00" width="7.32" height="7.32" rx="1" fill="#313244" opacity="0.169"/>
<rect x="351.83" y="74.00" width="7.32" height="7.32" rx="1" fill="#313244" opacity="0.133"/>
<rect x="360.35" y="74.00" width="7.32" height="7.32" rx="1" fill="#cba6f7" opacity="0.782"/>
<rect x="368.87" y="74.00" width="7.32" height="7.32" rx="1" fill="#b4befe" opacity="0.465"/>
<rect x="377.39" y="74.00" width="7.32" height="7.32" rx="1" fill="#cba6f7" opacity="0.976"/>
<rect x="385.91" y="74.00" width="7.32" height="7.32" rx="1" fill="#313244" opacity="0.308"/>
<rect x="394.43" y="74.00" width="7.32" height="7.32" rx="1" fill="#313244" opacity="0.284"/>
<rect x="402.96" y="74.00" width="7.32" height="7.32" rx="1" fill="#b4befe" opacity="0.445"/>
<rect x="420.00" y="74.00" width="7.32" height="7.32" rx="1" fill="#313244" opacity="0.121"/>
<rect x="428.52" y="74.00" width="7.32" height="7.32" rx="1" fill="#b4befe" opacity="0.453"/>
<rect x="437.04" y="74.00" width="7.32" height="7.32" rx="1" fill="#313244" opacity="0.275"/>
<rect x="454.09" y="74.00" width="7.32" height="7.32" rx="1" fill="#313244" opacity="0.216"/>
<rect x="462.61" y="74.00" width="7.32" height="7.32" rx="1" fill="#313244" opacity="0.288"/>
<rect x="471.13" y="74.00" width="7.32" height="7.32" rx="1" fill="#313244" opacity="0.145"/>
<rect x="479.65" y="74.00" width="7.32" height="7.32" rx="1" fill="#b4befe" opacity="0.428"/>
<rect x="496.70" y="74.00" width="7.32" height="7.32" rx="1" fill="#313244" opacity="0.206"/>
<rect x="505.22" y="74.00" width="7.32" height="7.32" rx="1" fill="#313244" opacity="0.155"/>
<rect x="539.30" y="74.00" width="7.32" height="7.32" rx="1" fill="#b4befe" opacity="0.65"/>
<rect x="547.83" y="74.00" width="7.32" height="7.32" rx="1" fill="#313244" opacity="0.228"/>
<rect x="556.35" y="74.00" width="7.32" height="7.32" rx="1" fill="#b4befe" opacity="0.475"/>
<rect x="564.87" y="74.00" width="7.32" height="7.32" rx="1" fill="#b4befe" opacity="0.366"/>
<rect x="581.91" y="74.00" width="7.32" height="7.32" rx="1" fill="#b4befe" opacity="0.552"/>
<rect x="598.96" y="74.00" width="7.32" height="7.32" rx="1" fill="#313244" opacity="0.306"/>
<rect x="607.48" y="74.00" width="7.32" height="7.32" rx="1" fill="#cba6f7" opacity="0.73"/>
<rect x="616.00" y="74.00" width="7.32" height="7.32" rx="1" fill="#b4befe" opacity="0.649"/>
<rect x="624.52" y="74.00" width="7.32" height="7.32" rx="1" fill="#313244" opacity="0.194"/>
<rect x="633.04" y="74.00" width="7.32" height="7.32" rx="1" fill="#313244" opacity="0.132"/>
<rect x="641.57" y="74.00" width="7.32" height="7.32" rx="1" fill="#cba6f7" opacity="0.889"/>
<rect x="658.61" y="74.00" width="7.32" height="7.32" rx="1" fill="#b4befe" opacity="0.451"/>
<rect x="675.65" y="74.00" width="7.32" height="7.32" rx="1" fill="#b4befe" opacity="0.606"/>
<rect x="701.22" y="74.00" width="7.32" height="7.32" rx="1" fill="#b4befe" opacity="0.477"/>
<rect x="709.74" y="74.00" width="7.32" height="7.32" rx="1" fill="#cba6f7" opacity="0.803"/>
<rect x="718.26" y="74.00" width="7.32" height="7.32" rx="1" fill="#313244" opacity="0.337"/>
<rect x="726.78" y="74.00" width="7.32" height="7.32" rx="1" fill="#b4befe" opacity="0.388"/>
<rect x="743.83" y="74.00" width="7.32" height="7.32" rx="1" fill="#313244" opacity="0.192"/>
<rect x="752.35" y="74.00" width="7.32" height="7.32" rx="1" fill="#b4befe" opacity="0.57"/>
<rect x="760.87" y="74.00" width="7.32" height="7.32" rx="1" fill="#b4befe" opacity="0.471"/>
<rect x="786.43" y="74.00" width="7.32" height="7.32" rx="1" fill="#313244" opacity="0.14"/>
<rect x="803.48" y="74.00" width="7.32" height="7.32" rx="1" fill="#cba6f7" opacity="0.892"/>
<rect x="28.00" y="82.52" width="7.32" height="7.32" rx="1" fill="#313244" opacity="0.208"/>
<rect x="36.52" y="82.52" width="7.32" height="7.32" rx="1" fill="#313244" opacity="0.288"/>
<rect x="45.04" y="82.52" width="7.32" height="7.32" rx="1" fill="#b4befe" opacity="0.53"/>
<rect x="53.57" y="82.52" width="7.32" height="7.32" rx="1" fill="#b4befe" opacity="0.623"/>
<rect x="62.09" y="82.52" width="7.32" height="7.32" rx="1" fill="#b4befe" opacity="0.686"/>
<rect x="70.61" y="82.52" width="7.32" height="7.32" rx="1" fill="#b4befe" opacity="0.556"/>
<rect x="79.13" y="82.52" width="7.32" height="7.32" rx="1" fill="#b4befe" opacity="0.394"/>
<rect x="96.17" y="82.52" width="7.32" height="7.32" rx="1" fill="#313244" opacity="0.259"/>
<rect x="104.70" y="82.52" width="7.32" height="7.32" rx="1" fill="#b4befe" opacity="0.577"/>
<rect x="113.22" y="82.52" width="7.32" height="7.32" rx="1" fill="#313244" opacity="0.167"/>
<rect x="130.26" y="82.52" width="7.32" height="7.32" rx="1" fill="#313244" opacity="0.118"/>
<rect x="147.30" y="82.52" width="7.32" height="7.32" rx="1" fill="#313244" opacity="0.331"/>
<rect x="181.39" y="82.52" width="7.32" height="7.32" rx="1" fill="#313244" opacity="0.229"/>
<rect x="189.91" y="82.52" width="7.32" height="7.32" rx="1" fill="#313244" opacity="0.123"/>
<rect x="198.43" y="82.52" width="7.32" height="7.32" rx="1" fill="#313244" opacity="0.128"/>
<rect x="206.96" y="82.52" width="7.32" height="7.32" rx="1" fill="#b4befe" opacity="0.468"/>
<rect x="215.48" y="82.52" width="7.32" height="7.32" rx="1" fill="#cba6f7" opacity="0.968"/>
<rect x="224.00" y="82.52" width="7.32" height="7.32" rx="1" fill="#313244" opacity="0.17"/>
<rect x="232.52" y="82.52" width="7.32" height="7.32" rx="1" fill="#b4befe" opacity="0.591"/>
<rect x="241.04" y="82.52" width="7.32" height="7.32" rx="1" fill="#cba6f7" opacity="0.714"/>
<rect x="266.61" y="82.52" width="7.32" height="7.32" rx="1" fill="#313244" opacity="0.248"/>
<rect x="283.65" y="82.52" width="7.32" height="7.32" rx="1" fill="#b4befe" opacity="0.354"/>
<rect x="292.17" y="82.52" width="7.32" height="7.32" rx="1" fill="#b4befe" opacity="0.619"/>
<rect x="300.70" y="82.52" width="7.32" height="7.32" rx="1" fill="#b4befe" opacity="0.603"/>
<rect x="309.22" y="82.52" width="7.32" height="7.32" rx="1" fill="#313244" opacity="0.123"/>
<rect x="326.26" y="82.52" width="7.32" height="7.32" rx="1" fill="#313244" opacity="0.117"/>
<rect x="334.78" y="82.52" width="7.32" height="7.32" rx="1" fill="#313244" opacity="0.181"/>
<rect x="343.30" y="82.52" width="7.32" height="7.32" rx="1" fill="#b4befe" opacity="0.506"/>
<rect x="351.83" y="82.52" width="7.32" height="7.32" rx="1" fill="#cba6f7" opacity="0.99"/>
<rect x="360.35" y="82.52" width="7.32" height="7.32" rx="1" fill="#cba6f7" opacity="0.938"/>
<rect x="385.91" y="82.52" width="7.32" height="7.32" rx="1" fill="#cba6f7" opacity="0.858"/>
<rect x="394.43" y="82.52" width="7.32" height="7.32" rx="1" fill="#313244" opacity="0.171"/>
<rect x="402.96" y="82.52" width="7.32" height="7.32" rx="1" fill="#313244" opacity="0.322"/>
<rect x="411.48" y="82.52" width="7.32" height="7.32" rx="1" fill="#cba6f7" opacity="0.992"/>
<rect x="420.00" y="82.52" width="7.32" height="7.32" rx="1" fill="#313244" opacity="0.151"/>
<rect x="428.52" y="82.52" width="7.32" height="7.32" rx="1" fill="#313244" opacity="0.3"/>
<rect x="454.09" y="82.52" width="7.32" height="7.32" rx="1" fill="#313244" opacity="0.23"/>
<rect x="471.13" y="82.52" width="7.32" height="7.32" rx="1" fill="#b4befe" opacity="0.44"/>
<rect x="488.17" y="82.52" width="7.32" height="7.32" rx="1" fill="#313244" opacity="0.256"/>
<rect x="505.22" y="82.52" width="7.32" height="7.32" rx="1" fill="#b4befe" opacity="0.398"/>
<rect x="513.74" y="82.52" width="7.32" height="7.32" rx="1" fill="#313244" opacity="0.119"/>
<rect x="522.26" y="82.52" width="7.32" height="7.32" rx="1" fill="#cba6f7" opacity="0.737"/>
<rect x="539.30" y="82.52" width="7.32" height="7.32" rx="1" fill="#b4befe" opacity="0.432"/>
<rect x="547.83" y="82.52" width="7.32" height="7.32" rx="1" fill="#b4befe" opacity="0.448"/>
<rect x="556.35" y="82.52" width="7.32" height="7.32" rx="1" fill="#313244" opacity="0.293"/>
<rect x="573.39" y="82.52" width="7.32" height="7.32" rx="1" fill="#313244" opacity="0.132"/>
<rect x="590.43" y="82.52" width="7.32" height="7.32" rx="1" fill="#313244" opacity="0.155"/>
<rect x="607.48" y="82.52" width="7.32" height="7.32" rx="1" fill="#b4befe" opacity="0.646"/>
<rect x="624.52" y="82.52" width="7.32" height="7.32" rx="1" fill="#cba6f7" opacity="0.778"/>
<rect x="633.04" y="82.52" width="7.32" height="7.32" rx="1" fill="#313244" opacity="0.225"/>
<rect x="641.57" y="82.52" width="7.32" height="7.32" rx="1" fill="#cba6f7" opacity="0.754"/>
<rect x="658.61" y="82.52" width="7.32" height="7.32" rx="1" fill="#cba6f7" opacity="0.709"/>
<rect x="692.70" y="82.52" width="7.32" height="7.32" rx="1" fill="#cba6f7" opacity="0.895"/>
<rect x="701.22" y="82.52" width="7.32" height="7.32" rx="1" fill="#cba6f7" opacity="0.748"/>
<rect x="718.26" y="82.52" width="7.32" height="7.32" rx="1" fill="#cba6f7" opacity="0.709"/>
<rect x="743.83" y="82.52" width="7.32" height="7.32" rx="1" fill="#b4befe" opacity="0.437"/>
<rect x="760.87" y="82.52" width="7.32" height="7.32" rx="1" fill="#313244" opacity="0.171"/>
<rect x="769.39" y="82.52" width="7.32" height="7.32" rx="1" fill="#313244" opacity="0.12"/>
<rect x="777.91" y="82.52" width="7.32" height="7.32" rx="1" fill="#313244" opacity="0.142"/>
<rect x="45.04" y="91.04" width="7.32" height="7.32" rx="1" fill="#b4befe" opacity="0.621"/>
<rect x="62.09" y="91.04" width="7.32" height="7.32" rx="1" fill="#313244" opacity="0.129"/>
<rect x="96.17" y="91.04" width="7.32" height="7.32" rx="1" fill="#313244" opacity="0.171"/>
<rect x="104.70" y="91.04" width="7.32" height="7.32" rx="1" fill="#cba6f7" opacity="0.961"/>
<rect x="121.74" y="91.04" width="7.32" height="7.32" rx="1" fill="#b4befe" opacity="0.684"/>
<rect x="138.78" y="91.04" width="7.32" height="7.32" rx="1" fill="#cba6f7" opacity="0.855"/>
<rect x="147.30" y="91.04" width="7.32" height="7.32" rx="1" fill="#b4befe" opacity="0.447"/>
<rect x="172.87" y="91.04" width="7.32" height="7.32" rx="1" fill="#313244" opacity="0.234"/>
<rect x="181.39" y="91.04" width="7.32" height="7.32" rx="1" fill="#b4befe" opacity="0.691"/>
<rect x="189.91" y="91.04" width="7.32" height="7.32" rx="1" fill="#b4befe" opacity="0.44"/>
<rect x="198.43" y="91.04" width="7.32" height="7.32" rx="1" fill="#b4befe" opacity="0.56"/>
<rect x="206.96" y="91.04" width="7.32" height="7.32" rx="1" fill="#313244" opacity="0.244"/>
<rect x="215.48" y="91.04" width="7.32" height="7.32" rx="1" fill="#b4befe" opacity="0.368"/>
<rect x="241.04" y="91.04" width="7.32" height="7.32" rx="1" fill="#cba6f7" opacity="0.721"/>
<rect x="249.57" y="91.04" width="7.32" height="7.32" rx="1" fill="#b4befe" opacity="0.355"/>
<rect x="266.61" y="91.04" width="7.32" height="7.32" rx="1" fill="#b4befe" opacity="0.665"/>
<rect x="275.13" y="91.04" width="7.32" height="7.32" rx="1" fill="#cba6f7" opacity="0.832"/>
<rect x="283.65" y="91.04" width="7.32" height="7.32" rx="1" fill="#b4befe" opacity="0.63"/>
<rect x="292.17" y="91.04" width="7.32" height="7.32" rx="1" fill="#cba6f7" opacity="0.869"/>
<rect x="300.70" y="91.04" width="7.32" height="7.32" rx="1" fill="#313244" opacity="0.279"/>
<rect x="309.22" y="91.04" width="7.32" height="7.32" rx="1" fill="#313244" opacity="0.331"/>
<rect x="326.26" y="91.04" width="7.32" height="7.32" rx="1" fill="#313244" opacity="0.225"/>
<rect x="343.30" y="91.04" width="7.32" height="7.32" rx="1" fill="#313244" opacity="0.225"/>
<rect x="351.83" y="91.04" width="7.32" height="7.32" rx="1" fill="#313244" opacity="0.199"/>
<rect x="360.35" y="91.04" width="7.32" height="7.32" rx="1" fill="#b4befe" opacity="0.385"/>
<rect x="368.87" y="91.04" width="7.32" height="7.32" rx="1" fill="#b4befe" opacity="0.686"/>
<rect x="385.91" y="91.04" width="7.32" height="7.32" rx="1" fill="#313244" opacity="0.153"/>
<rect x="402.96" y="91.04" width="7.32" height="7.32" rx="1" fill="#313244" opacity="0.163"/>
<rect x="411.48" y="91.04" width="7.32" height="7.32" rx="1" fill="#313244" opacity="0.198"/>
<rect x="420.00" y="91.04" width="7.32" height="7.32" rx="1" fill="#313244" opacity="0.232"/>
<rect x="437.04" y="91.04" width="7.32" height="7.32" rx="1" fill="#cba6f7" opacity="0.735"/>
<rect x="445.57" y="91.04" width="7.32" height="7.32" rx="1" fill="#b4befe" opacity="0.476"/>
<rect x="454.09" y="91.04" width="7.32" height="7.32" rx="1" fill="#313244" opacity="0.315"/>
<rect x="462.61" y="91.04" width="7.32" height="7.32" rx="1" fill="#313244" opacity="0.123"/>
<rect x="471.13" y="91.04" width="7.32" height="7.32" rx="1" fill="#b4befe" opacity="0.462"/>
<rect x="479.65" y="91.04" width="7.32" height="7.32" rx="1" fill="#b4befe" opacity="0.653"/>
<rect x="488.17" y="91.04" width="7.32" height="7.32" rx="1" fill="#313244" opacity="0.173"/>
<rect x="496.70" y="91.04" width="7.32" height="7.32" rx="1" fill="#cba6f7" opacity="0.998"/>
<rect x="505.22" y="91.04" width="7.32" height="7.32" rx="1" fill="#cba6f7" opacity="0.723"/>
<rect x="530.78" y="91.04" width="7.32" height="7.32" rx="1" fill="#313244" opacity="0.134"/>
<rect x="539.30" y="91.04" width="7.32" height="7.32" rx="1" fill="#b4befe" opacity="0.707"/>
<rect x="547.83" y="91.04" width="7.32" height="7.32" rx="1" fill="#313244" opacity="0.215"/>
<rect x="556.35" y="91.04" width="7.32" height="7.32" rx="1" fill="#313244" opacity="0.203"/>
<rect x="573.39" y="91.04" width="7.32" height="7.32" rx="1" fill="#313244" opacity="0.289"/>
<rect x="598.96" y="91.04" width="7.32" height="7.32" rx="1" fill="#313244" opacity="0.152"/>
<rect x="616.00" y="91.04" width="7.32" height="7.32" rx="1" fill="#b4befe" opacity="0.544"/>
<rect x="624.52" y="91.04" width="7.32" height="7.32" rx="1" fill="#313244" opacity="0.245"/>
<rect x="633.04" y="91.04" width="7.32" height="7.32" rx="1" fill="#b4befe" opacity="0.388"/>
<rect x="641.57" y="91.04" width="7.32" height="7.32" rx="1" fill="#b4befe" opacity="0.576"/>
<rect x="658.61" y="91.04" width="7.32" height="7.32" rx="1" fill="#313244" opacity="0.137"/>
<rect x="675.65" y="91.04" width="7.32" height="7.32" rx="1" fill="#b4befe" opacity="0.701"/>
<rect x="684.17" y="91.04" width="7.32" height="7.32" rx="1" fill="#cba6f7" opacity="0.968"/>
<rect x="692.70" y="91.04" width="7.32" height="7.32" rx="1" fill="#313244" opacity="0.145"/>
<rect x="701.22" y="91.04" width="7.32" height="7.32" rx="1" fill="#313244" opacity="0.22"/>
<rect x="718.26" y="91.04" width="7.32" height="7.32" rx="1" fill="#313244" opacity="0.154"/>
<rect x="726.78" y="91.04" width="7.32" height="7.32" rx="1" fill="#b4befe" opacity="0.374"/>
<rect x="735.30" y="91.04" width="7.32" height="7.32" rx="1" fill="#313244" opacity="0.169"/>
<rect x="743.83" y="91.04" width="7.32" height="7.32" rx="1" fill="#b4befe" opacity="0.352"/>
<rect x="752.35" y="91.04" width="7.32" height="7.32" rx="1" fill="#b4befe" opacity="0.459"/>
<rect x="760.87" y="91.04" width="7.32" height="7.32" rx="1" fill="#cba6f7" opacity="0.831"/>
<rect x="769.39" y="91.04" width="7.32" height="7.32" rx="1" fill="#b4befe" opacity="0.54"/>
<rect x="794.96" y="91.04" width="7.32" height="7.32" rx="1" fill="#313244" opacity="0.142"/>

<g>
  <text x="28" y="149" font-family="JetBrains Mono, ui-monospace, SFMono-Regular, Menlo, monospace" font-size="12" fill="#a6adc8">weekdays</text>
  <rect x="124.00" y="140" width="11.75" height="11" rx="1" fill="#cba6f7" opacity="1.0"/><rect x="137.35" y="140" width="11.75" height="11" rx="1" fill="#cba6f7" opacity="1.0"/><rect x="150.70" y="140" width="11.75" height="11" rx="1" fill="#cba6f7" opacity="1.0"/><rect x="164.05" y="140" width="11.75" height="11" rx="1" fill="#cba6f7" opacity="1.0"/><rect x="177.40" y="140" width="11.75" height="11" rx="1" fill="#cba6f7" opacity="1.0"/><rect x="190.75" y="140" width="11.75" height="11" rx="1" fill="#cba6f7" opacity="1.0"/><rect x="204.10" y="140" width="11.75" height="11" rx="1" fill="#cba6f7" opacity="1.0"/><rect x="217.45" y="140" width="11.75" height="11" rx="1" fill="#cba6f7" opacity="1.0"/><rect x="230.80" y="140" width="11.75" height="11" rx="1" fill="#cba6f7" opacity="1.0"/><rect x="244.15" y="140" width="11.75" height="11" rx="1" fill="#cba6f7" opacity="1.0"/><rect x="257.50" y="140" width="11.75" height="11" rx="1" fill="#cba6f7" opacity="1.0"/><rect x="270.85" y="140" width="11.75" height="11" rx="1" fill="#cba6f7" opacity="1.0"/><rect x="284.20" y="140" width="11.75" height="11" rx="1" fill="#cba6f7" opacity="1.0"/><rect x="297.55" y="140" width="11.75" height="11" rx="1" fill="#cba6f7" opacity="1.0"/><rect x="310.90" y="140" width="11.75" height="11" rx="1" fill="#cba6f7" opacity="1.0"/><rect x="324.25" y="140" width="11.75" height="11" rx="1" fill="#cba6f7" opacity="1.0"/><rect x="337.60" y="140" width="11.75" height="11" rx="1" fill="#cba6f7" opacity="1.0"/><rect x="350.95" y="140" width="11.75" height="11" rx="1" fill="#cba6f7" opacity="1.0"/><rect x="364.30" y="140" width="11.75" height="11" rx="1" fill="#cba6f7" opacity="1.0"/><rect x="377.65" y="140" width="11.75" height="11" rx="1" fill="#cba6f7" opacity="1.0"/><rect x="391.00" y="140" width="11.75" height="11" rx="1" fill="#cba6f7" opacity="1.0"/><rect x="404.35" y="140" width="11.75" height="11" rx="1" fill="#cba6f7" opacity="1.0"/><rect x="417.70" y="140" width="11.75" height="11" rx="1" fill="#cba6f7" opacity="1.0"/><rect x="431.05" y="140" width="11.75" height="11" rx="1" fill="#cba6f7" opacity="1.0"/><rect x="444.40" y="140" width="11.75" height="11" rx="1" fill="#cba6f7" opacity="1.0"/><rect x="457.75" y="140" width="11.75" height="11" rx="1" fill="#cba6f7" opacity="1.0"/><rect x="471.10" y="140" width="11.75" height="11" rx="1" fill="#cba6f7" opacity="1.0"/><rect x="484.45" y="140" width="11.75" height="11" rx="1" fill="#cba6f7" opacity="1.0"/><rect x="497.80" y="140" width="11.75" height="11" rx="1" fill="#cba6f7" opacity="1.0"/><rect x="511.15" y="140" width="11.75" height="11" rx="1" fill="#cba6f7" opacity="1.0"/><rect x="524.50" y="140" width="11.75" height="11" rx="1" fill="#cba6f7" opacity="1.0"/><rect x="537.85" y="140" width="11.75" height="11" rx="1" fill="#cba6f7" opacity="1.0"/><rect x="551.20" y="140" width="11.75" height="11" rx="1" fill="#cba6f7" opacity="1.0"/><rect x="564.55" y="140" width="11.75" height="11" rx="1" fill="#cba6f7" opacity="1.0"/><rect x="577.90" y="140" width="11.75" height="11" rx="1" fill="#cba6f7" opacity="1.0"/><rect x="591.25" y="140" width="11.75" height="11" rx="1" fill="#cba6f7" opacity="1.0"/><rect x="604.60" y="140" width="11.75" height="11" rx="1" fill="#313244" opacity="0.45"/><rect x="617.95" y="140" width="11.75" height="11" rx="1" fill="#313244" opacity="0.45"/><rect x="631.30" y="140" width="11.75" height="11" rx="1" fill="#313244" opacity="0.45"/><rect x="644.65" y="140" width="11.75" height="11" rx="1" fill="#313244" opacity="0.45"/>
  <text x="674" y="149" font-family="JetBrains Mono, ui-monospace, SFMono-Regular, Menlo, monospace" font-size="12" fill="#cdd6f4">2.51</text>
  <text x="712" y="149" font-family="JetBrains Mono, ui-monospace, SFMono-Regular, Menlo, monospace" font-size="12" fill="#6c7086">/ 2.81 bits</text>
  <text x="124" y="166" font-family="JetBrains Mono, ui-monospace, SFMono-Regular, Menlo, monospace" font-size="9.5" fill="#6c7086">109 contributions across 7 days</text>
</g>

<g>
  <text x="28" y="195" font-family="JetBrains Mono, ui-monospace, SFMono-Regular, Menlo, monospace" font-size="12" fill="#a6adc8">the year</text>
  <rect x="124.00" y="186" width="11.75" height="11" rx="1" fill="#cba6f7" opacity="1.0"/><rect x="137.35" y="186" width="11.75" height="11" rx="1" fill="#cba6f7" opacity="1.0"/><rect x="150.70" y="186" width="11.75" height="11" rx="1" fill="#cba6f7" opacity="1.0"/><rect x="164.05" y="186" width="11.75" height="11" rx="1" fill="#cba6f7" opacity="1.0"/><rect x="177.40" y="186" width="11.75" height="11" rx="1" fill="#cba6f7" opacity="1.0"/><rect x="190.75" y="186" width="11.75" height="11" rx="1" fill="#cba6f7" opacity="1.0"/><rect x="204.10" y="186" width="11.75" height="11" rx="1" fill="#cba6f7" opacity="1.0"/><rect x="217.45" y="186" width="11.75" height="11" rx="1" fill="#cba6f7" opacity="1.0"/><rect x="230.80" y="186" width="11.75" height="11" rx="1" fill="#cba6f7" opacity="1.0"/><rect x="244.15" y="186" width="11.75" height="11" rx="1" fill="#cba6f7" opacity="1.0"/><rect x="257.50" y="186" width="11.75" height="11" rx="1" fill="#cba6f7" opacity="1.0"/><rect x="270.85" y="186" width="11.75" height="11" rx="1" fill="#cba6f7" opacity="1.0"/><rect x="284.20" y="186" width="11.75" height="11" rx="1" fill="#cba6f7" opacity="1.0"/><rect x="297.55" y="186" width="11.75" height="11" rx="1" fill="#cba6f7" opacity="1.0"/><rect x="310.90" y="186" width="11.75" height="11" rx="1" fill="#cba6f7" opacity="1.0"/><rect x="324.25" y="186" width="11.75" height="11" rx="1" fill="#cba6f7" opacity="1.0"/><rect x="337.60" y="186" width="11.75" height="11" rx="1" fill="#cba6f7" opacity="1.0"/><rect x="350.95" y="186" width="11.75" height="11" rx="1" fill="#cba6f7" opacity="1.0"/><rect x="364.30" y="186" width="11.75" height="11" rx="1" fill="#cba6f7" opacity="1.0"/><rect x="377.65" y="186" width="11.75" height="11" rx="1" fill="#313244" opacity="0.45"/><rect x="391.00" y="186" width="11.75" height="11" rx="1" fill="#313244" opacity="0.45"/><rect x="404.35" y="186" width="11.75" height="11" rx="1" fill="#313244" opacity="0.45"/><rect x="417.70" y="186" width="11.75" height="11" rx="1" fill="#313244" opacity="0.45"/><rect x="431.05" y="186" width="11.75" height="11" rx="1" fill="#313244" opacity="0.45"/><rect x="444.40" y="186" width="11.75" height="11" rx="1" fill="#313244" opacity="0.45"/><rect x="457.75" y="186" width="11.75" height="11" rx="1" fill="#313244" opacity="0.45"/><rect x="471.10" y="186" width="11.75" height="11" rx="1" fill="#313244" opacity="0.45"/><rect x="484.45" y="186" width="11.75" height="11" rx="1" fill="#313244" opacity="0.45"/><rect x="497.80" y="186" width="11.75" height="11" rx="1" fill="#313244" opacity="0.45"/><rect x="511.15" y="186" width="11.75" height="11" rx="1" fill="#313244" opacity="0.45"/><rect x="524.50" y="186" width="11.75" height="11" rx="1" fill="#313244" opacity="0.45"/><rect x="537.85" y="186" width="11.75" height="11" rx="1" fill="#313244" opacity="0.45"/><rect x="551.20" y="186" width="11.75" height="11" rx="1" fill="#313244" opacity="0.45"/><rect x="564.55" y="186" width="11.75" height="11" rx="1" fill="#313244" opacity="0.45"/><rect x="577.90" y="186" width="11.75" height="11" rx="1" fill="#313244" opacity="0.45"/><rect x="591.25" y="186" width="11.75" height="11" rx="1" fill="#313244" opacity="0.45"/><rect x="604.60" y="186" width="11.75" height="11" rx="1" fill="#313244" opacity="0.45"/><rect x="617.95" y="186" width="11.75" height="11" rx="1" fill="#313244" opacity="0.45"/><rect x="631.30" y="186" width="11.75" height="11" rx="1" fill="#313244" opacity="0.45"/><rect x="644.65" y="186" width="11.75" height="11" rx="1" fill="#313244" opacity="0.45"/>
  <text x="674" y="195" font-family="JetBrains Mono, ui-monospace, SFMono-Regular, Menlo, monospace" font-size="12" fill="#cdd6f4">3.99</text>
  <text x="712" y="195" font-family="JetBrains Mono, ui-monospace, SFMono-Regular, Menlo, monospace" font-size="12" fill="#6c7086">/ 8.53 bits</text>
  <text x="124" y="212" font-family="JetBrains Mono, ui-monospace, SFMono-Regular, Menlo, monospace" font-size="9.5" fill="#6c7086">369 days observed</text>
</g>

<g>
  <text x="28" y="241" font-family="JetBrains Mono, ui-monospace, SFMono-Regular, Menlo, monospace" font-size="12" fill="#a6adc8">languages</text>
  <rect x="124.00" y="232" width="11.75" height="11" rx="1" fill="#313244" opacity="0.45"/><rect x="137.35" y="232" width="11.75" height="11" rx="1" fill="#313244" opacity="0.45"/><rect x="150.70" y="232" width="11.75" height="11" rx="1" fill="#313244" opacity="0.45"/><rect x="164.05" y="232" width="11.75" height="11" rx="1" fill="#313244" opacity="0.45"/><rect x="177.40" y="232" width="11.75" height="11" rx="1" fill="#313244" opacity="0.45"/><rect x="190.75" y="232" width="11.75" height="11" rx="1" fill="#313244" opacity="0.45"/><rect x="204.10" y="232" width="11.75" height="11" rx="1" fill="#313244" opacity="0.45"/><rect x="217.45" y="232" width="11.75" height="11" rx="1" fill="#313244" opacity="0.45"/><rect x="230.80" y="232" width="11.75" height="11" rx="1" fill="#313244" opacity="0.45"/><rect x="244.15" y="232" width="11.75" height="11" rx="1" fill="#313244" opacity="0.45"/><rect x="257.50" y="232" width="11.75" height="11" rx="1" fill="#313244" opacity="0.45"/><rect x="270.85" y="232" width="11.75" height="11" rx="1" fill="#313244" opacity="0.45"/><rect x="284.20" y="232" width="11.75" height="11" rx="1" fill="#313244" opacity="0.45"/><rect x="297.55" y="232" width="11.75" height="11" rx="1" fill="#313244" opacity="0.45"/><rect x="310.90" y="232" width="11.75" height="11" rx="1" fill="#313244" opacity="0.45"/><rect x="324.25" y="232" width="11.75" height="11" rx="1" fill="#313244" opacity="0.45"/><rect x="337.60" y="232" width="11.75" height="11" rx="1" fill="#313244" opacity="0.45"/><rect x="350.95" y="232" width="11.75" height="11" rx="1" fill="#313244" opacity="0.45"/><rect x="364.30" y="232" width="11.75" height="11" rx="1" fill="#313244" opacity="0.45"/><rect x="377.65" y="232" width="11.75" height="11" rx="1" fill="#313244" opacity="0.45"/><rect x="391.00" y="232" width="11.75" height="11" rx="1" fill="#313244" opacity="0.45"/><rect x="404.35" y="232" width="11.75" height="11" rx="1" fill="#313244" opacity="0.45"/><rect x="417.70" y="232" width="11.75" height="11" rx="1" fill="#313244" opacity="0.45"/><rect x="431.05" y="232" width="11.75" height="11" rx="1" fill="#313244" opacity="0.45"/><rect x="444.40" y="232" width="11.75" height="11" rx="1" fill="#313244" opacity="0.45"/><rect x="457.75" y="232" width="11.75" height="11" rx="1" fill="#313244" opacity="0.45"/><rect x="471.10" y="232" width="11.75" height="11" rx="1" fill="#313244" opacity="0.45"/><rect x="484.45" y="232" width="11.75" height="11" rx="1" fill="#313244" opacity="0.45"/><rect x="497.80" y="232" width="11.75" height="11" rx="1" fill="#313244" opacity="0.45"/><rect x="511.15" y="232" width="11.75" height="11" rx="1" fill="#313244" opacity="0.45"/><rect x="524.50" y="232" width="11.75" height="11" rx="1" fill="#313244" opacity="0.45"/><rect x="537.85" y="232" width="11.75" height="11" rx="1" fill="#313244" opacity="0.45"/><rect x="551.20" y="232" width="11.75" height="11" rx="1" fill="#313244" opacity="0.45"/><rect x="564.55" y="232" width="11.75" height="11" rx="1" fill="#313244" opacity="0.45"/><rect x="577.90" y="232" width="11.75" height="11" rx="1" fill="#313244" opacity="0.45"/><rect x="591.25" y="232" width="11.75" height="11" rx="1" fill="#313244" opacity="0.45"/><rect x="604.60" y="232" width="11.75" height="11" rx="1" fill="#313244" opacity="0.45"/><rect x="617.95" y="232" width="11.75" height="11" rx="1" fill="#313244" opacity="0.45"/><rect x="631.30" y="232" width="11.75" height="11" rx="1" fill="#313244" opacity="0.45"/><rect x="644.65" y="232" width="11.75" height="11" rx="1" fill="#313244" opacity="0.45"/>
  <text x="674" y="241" font-family="JetBrains Mono, ui-monospace, SFMono-Regular, Menlo, monospace" font-size="12" fill="#cdd6f4">0.00</text>
  <text x="712" y="241" font-family="JetBrains Mono, ui-monospace, SFMono-Regular, Menlo, monospace" font-size="12" fill="#6c7086">/ 0.00 bits</text>
  <text x="124" y="258" font-family="JetBrains Mono, ui-monospace, SFMono-Regular, Menlo, monospace" font-size="9.5" fill="#6c7086">—</text>
</g>
<line x1="28" y1="264" x2="812" y2="264" stroke="#313244"/>
<text x="28" y="283" font-family="JetBrains Mono, ui-monospace, SFMono-Regular, Menlo, monospace" font-size="11" fill="#f5c2e7">the bear is a creature of routine. this is a vulnerability.</text>
<text x="812" y="283" text-anchor="end" font-family="JetBrains Mono, ui-monospace, SFMono-Regular, Menlo, monospace" font-size="11" fill="#6c7086">disorder: 45%</text>
</svg>