<svg xmlns="http://www.w3.org/2000/svg" viewBox="0 0 840 300" width="840" height="300" role="img" aria-label="entropy report">
<rect width="840" height="300" rx="10" fill="#1e1e2e"/>
<rect x="0.5" y="0.5" width="839" height="299" rx="10" fill="none" stroke="#313244"/>
<text x="28" y="38" font-family="JetBrains Mono, ui-monospace, SFMono-Regular, Menlo, monospace" font-size="14" font-weight="600" fill="#cba6f7">$ entropy --user winniepwned</text>
<text x="812" y="38" text-anchor="end" font-family="JetBrains Mono, ui-monospace, SFMono-Regular, Menlo, monospace" font-size="11" fill="#6c7086">2026-07-20</text>
<text x="28" y="66" font-family="JetBrains Mono, ui-monospace, SFMono-Regular, Menlo, monospace" font-size="9.5" fill="#6c7086">/dev/urandom — where the bear goes to think</text>
<rect x="28.00" y="74.00" width="7.32" height="7.32" rx="1" fill="#cba6f7" opacity="0.766"/>
<rect x="36.52" y="74.00" width="7.32" height="7.32" rx="1" fill="#cba6f7" opacity="0.82"/>
<rect x="53.57" y="74.00" width="7.32" height="7.32" rx="1" fill="#b4befe" opacity="0.398"/>
<rect x="62.09" y="74.00" width="7.32" height="7.32" rx="1" fill="#b4befe" opacity="0.443"/>
<rect x="70.61" y="74.00" width="7.32" height="7.32" rx="1" fill="#b4befe" opacity="0.653"/>
<rect x="79.13" y="74.00" width="7.32" height="7.32" rx="1" fill="#b4befe" opacity="0.357"/>
<rect x="87.65" y="74.00" width="7.32" height="7.32" rx="1" fill="#b4befe" opacity="0.418"/>
<rect x="96.17" y="74.00" width="7.32" height="7.32" rx="1" fill="#313244" opacity="0.298"/>
<rect x="113.22" y="74.00" width="7.32" height="7.32" rx="1" fill="#313244" opacity="0.259"/>
<rect x="121.74" y="74.00" width="7.32" height="7.32" rx="1" fill="#313244" opacity="0.194"/>
<rect x="130.26" y="74.00" width="7.32" height="7.32" rx="1" fill="#313244" opacity="0.27"/>
<rect x="138.78" y="74.00" width="7.32" height="7.32" rx="1" fill="#313244" opacity="0.158"/>
<rect x="147.30" y="74.00" width="7.32" height="7.32" rx="1" fill="#b4befe" opacity="0.528"/>
<rect x="155.83" y="74.00" width="7.32" height="7.32" rx="1" fill="#b4befe" opacity="0.498"/>
<rect x="172.87" y="74.00" width="7.32" height="7.32" rx="1" fill="#cba6f7" opacity="0.995"/>
<rect x="181.39" y="74.00" width="7.32" height="7.32" rx="1" fill="#313244" opacity="0.237"/>
<rect x="189.91" y="74.00" width="7.32" height="7.32" rx="1" fill="#313244" opacity="0.264"/>
<rect x="232.52" y="74.00" width="7.32" height="7.32" rx="1" fill="#313244" opacity="0.264"/>
<rect x="241.04" y="74.00" width="7.32" height="7.32" rx="1" fill="#313244" opacity="0.296"/>
<rect x="258.09" y="74.00" width="7.32" height="7.32" rx="1" fill="#313244" opacity="0.122"/>
<rect x="266.61" y="74.00" width="7.32" height="7.32" rx="1" fill="#313244" opacity="0.121"/>
<rect x="275.13" y="74.00" width="7.32" height="7.32" rx="1" fill="#313244" opacity="0.243"/>
<rect x="283.65" y="74.00" width="7.32" height="7.32" rx="1" fill="#313244" opacity="0.28"/>
<rect x="292.17" y="74.00" width="7.32" height="7.32" rx="1" fill="#cba6f7" opacity="0.74"/>
<rect x="300.70" y="74.00" width="7.32" height="7.32" rx="1" fill="#313244" opacity="0.223"/>
<rect x="309.22" y="74.00" width="7.32" height="7.32" rx="1" fill="#313244" opacity="0.138"/>
<rect x="326.26" y="74.00" width="7.32" height="7.32" rx="1" fill="#cba6f7" opacity="0.73"/>
<rect x="343.30" y="74.00" width="7.32" height="7.32" rx="1" fill="#313244" opacity="0.191"/>
<rect x="351.83" y="74.00" width="7.32" height="7.32" rx="1" fill="#313244" opacity="0.182"/>
<rect x="360.35" y="74.00" width="7.32" height="7.32" rx="1" fill="#313244" opacity="0.166"/>
<rect x="377.39" y="74.00" width="7.32" height="7.32" rx="1" fill="#b4befe" opacity="0.42"/>
<rect x="385.91" y="74.00" width="7.32" height="7.32" rx="1" fill="#b4befe" opacity="0.579"/>
<rect x="394.43" y="74.00" width="7.32" height="7.32" rx="1" fill="#cba6f7" opacity="0.875"/>
<rect x="402.96" y="74.00" width="7.32" height="7.32" rx="1" fill="#cba6f7" opacity="0.969"/>
<rect x="411.48" y="74.00" width="7.32" height="7.32" rx="1" fill="#313244" opacity="0.268"/>
<rect x="428.52" y="74.00" width="7.32" height="7.32" rx="1" fill="#313244" opacity="0.24"/>
<rect x="462.61" y="74.00" width="7.32" height="7.32" rx="1" fill="#313244" opacity="0.121"/>
<rect x="479.65" y="74.00" width="7.32" height="7.32" rx="1" fill="#cba6f7" opacity="0.756"/>
<rect x="496.70" y="74.00" width="7.32" height="7.32" rx="1" fill="#cba6f7" opacity="0.732"/>
<rect x="505.22" y="74.00" width="7.32" height="7.32" rx="1" fill="#cba6f7" opacity="0.972"/>
<rect x="522.26" y="74.00" width="7.32" height="7.32" rx="1" fill="#b4befe" opacity="0.465"/>
<rect x="530.78" y="74.00" width="7.32" height="7.32" rx="1" fill="#313244" opacity="0.186"/>
<rect x="547.83" y="74.00" width="7.32" height="7.32" rx="1" fill="#b4befe" opacity="0.557"/>
<rect x="556.35" y="74.00" width="7.32" height="7.32" rx="1" fill="#313244" opacity="0.282"/>
<rect x="564.87" y="74.00" width="7.32" height="7.32" rx="1" fill="#313244" opacity="0.128"/>
<rect x="573.39" y="74.00" width="7.32" height="7.32" rx="1" fill="#313244" opacity="0.129"/>
<rect x="581.91" y="74.00" width="7.32" height="7.32" rx="1" fill="#313244" opacity="0.186"/>
<rect x="590.43" y="74.00" width="7.32" height="7.32" rx="1" fill="#cba6f7" opacity="0.826"/>
<rect x="607.48" y="74.00" width="7.32" height="7.32" rx="1" fill="#313244" opacity="0.133"/>
<rect x="624.52" y="74.00" width="7.32" height="7.32" rx="1" fill="#313244" opacity="0.143"/>
<rect x="650.09" y="74.00" width="7.32" height="7.32" rx="1" fill="#313244" opacity="0.297"/>
<rect x="658.61" y="74.00" width="7.32" height="7.32" rx="1" fill="#313244" opacity="0.117"/>
<rect x="667.13" y="74.00" width="7.32" height="7.32" rx="1" fill="#b4befe" opacity="0.355"/>
<rect x="675.65" y="74.00" width="7.32" height="7.32" rx="1" fill="#cba6f7" opacity="0.863"/>
<rect x="684.17" y="74.00" width="7.32" height="7.32" rx="1" fill="#b4befe" opacity="0.631"/>
<rect x="692.70" y="74.00" width="7.32" height="7.32" rx="1" fill="#cba6f7" opacity="0.865"/>
<rect x="701.22" y="74.00" width="7.32" height="7.32" rx="1" fill="#313244" opacity="0.164"/>
<rect x="718.26" y="74.00" width="7.32" height="7.32" rx="1" fill="#b4befe" opacity="0.685"/>
<rect x="735.30" y="74.00" width="7.32" height="7.32" rx="1" fill="#cba6f7" opacity="0.739"/>
<rect x="743.83" y="74.00" width="7.32" height="7.32" rx="1" fill="#313244" opacity="0.309"/>
<rect x="752.35" y="74.00" width="7.32" height="7.32" rx="1" fill="#cba6f7" opacity="0.743"/>
<rect x="760.87" y="74.00" width="7.32" height="7.32" rx="1" fill="#313244" opacity="0.141"/>
<rect x="777.91" y="74.00" width="7.32" height="7.32" rx="1" fill="#cba6f7" opacity="0.731"/>
<rect x="794.96" y="74.00" width="7.32" height="7.32" rx="1" fill="#cba6f7" opacity="0.987"/>
<rect x="803.48" y="74.00" width="7.32" height="7.32" rx="1" fill="#b4befe" opacity="0.454"/>
<rect x="28.00" y="82.52" width="7.32" height="7.32" rx="1" fill="#b4befe" opacity="0.43"/>
<rect x="36.52" y="82.52" width="7.32" height="7.32" rx="1" fill="#313244" opacity="0.126"/>
<rect x="45.04" y="82.52" width="7.32" height="7.32" rx="1" fill="#313244" opacity="0.198"/>
<rect x="53.57" y="82.52" width="7.32" height="7.32" rx="1" fill="#313244" opacity="0.169"/>
<rect x="79.13" y="82.52" width="7.32" height="7.32" rx="1" fill="#b4befe" opacity="0.382"/>
<rect x="87.65" y="82.52" width="7.32" height="7.32" rx="1" fill="#313244" opacity="0.228"/>
<rect x="96.17" y="82.52" width="7.32" height="7.32" rx="1" fill="#cba6f7" opacity="0.891"/>
<rect x="104.70" y="82.52" width="7.32" height="7.32" rx="1" fill="#cba6f7" opacity="0.813"/>
<rect x="113.22" y="82.52" width="7.32" height="7.32" rx="1" fill="#313244" opacity="0.141"/>
<rect x="121.74" y="82.52" width="7.32" height="7.32" rx="1" fill="#b4befe" opacity="0.522"/>
<rect x="130.26" y="82.52" width="7.32" height="7.32" rx="1" fill="#313244" opacity="0.179"/>
<rect x="138.78" y="82.52" width="7.32" height="7.32" rx="1" fill="#b4befe" opacity="0.457"/>
<rect x="147.30" y="82.52" width="7.32" height="7.32" rx="1" fill="#313244" opacity="0.254"/>
<rect x="155.83" y="82.52" width="7.32" height="7.32" rx="1" fill="#313244" opacity="0.203"/>
<rect x="164.35" y="82.52" width="7.32" height="7.32" rx="1" fill="#b4befe" opacity="0.456"/>
<rect x="181.39" y="82.52" width="7.32" height="7.32" rx="1" fill="#cba6f7" opacity="0.828"/>
<rect x="189.91" y="82.52" width="7.32" height="7.32" rx="1" fill="#b4befe" opacity="0.354"/>
<rect x="198.43" y="82.52" width="7.32" height="7.32" rx="1" fill="#313244" opacity="0.295"/>
<rect x="215.48" y="82.52" width="7.32" height="7.32" rx="1" fill="#313244" opacity="0.147"/>
<rect x="224.00" y="82.52" width="7.32" height="7.32" rx="1" fill="#313244" opacity="0.152"/>
<rect x="232.52" y="82.52" width="7.32" height="7.32" rx="1" fill="#b4befe" opacity="0.362"/>
<rect x="241.04" y="82.52" width="7.32" height="7.32" rx="1" fill="#cba6f7" opacity="0.717"/>
<rect x="249.57" y="82.52" width="7.32" height="7.32" rx="1" fill="#b4befe" opacity="0.493"/>
<rect x="258.09" y="82.52" width="7.32" height="7.32" rx="1" fill="#b4befe" opacity="0.444"/>
<rect x="266.61" y="82.52" width="7.32" height="7.32" rx="1" fill="#313244" opacity="0.205"/>
<rect x="283.65" y="82.52" width="7.32" height="7.32" rx="1" fill="#313244" opacity="0.23"/>
<rect x="292.17" y="82.52" width="7.32" height="7.32" rx="1" fill="#b4befe" opacity="0.531"/>
<rect x="309.22" y="82.52" width="7.32" height="7.32" rx="1" fill="#cba6f7" opacity="0.846"/>
<rect x="317.74" y="82.52" width="7.32" height="7.32" rx="1" fill="#313244" opacity="0.192"/>
<rect x="326.26" y="82.52" width="7.32" height="7.32" rx="1" fill="#b4befe" opacity="0.401"/>
<rect x="343.30" y="82.52" width="7.32" height="7.32" rx="1" fill="#313244" opacity="0.243"/>
<rect x="351.83" y="82.52" width="7.32" height="7.32" rx="1" fill="#cba6f7" opacity="0.921"/>
<rect x="360.35" y="82.52" width="7.32" height="7.32" rx="1" fill="#cba6f7" opacity="0.968"/>
<rect x="377.39" y="82.52" width="7.32" height="7.32" rx="1" fill="#313244" opacity="0.302"/>
<rect x="385.91" y="82.52" width="7.32" height="7.32" rx="1" fill="#313244" opacity="0.142"/>
<rect x="394.43" y="82.52" width="7.32" height="7.32" rx="1" fill="#313244" opacity="0.117"/>
<rect x="402.96" y="82.52" width="7.32" height="7.32" rx="1" fill="#313244" opacity="0.186"/>
<rect x="411.48" y="82.52" width="7.32" height="7.32" rx="1" fill="#b4befe" opacity="0.69"/>
<rect x="420.00" y="82.52" width="7.32" height="7.32" rx="1" fill="#b4befe" opacity="0.517"/>
<rect x="428.52" y="82.52" width="7.32" height="7.32" rx="1" fill="#313244" opacity="0.127"/>
<rect x="445.57" y="82.52" width="7.32" height="7.32" rx="1" fill="#b4befe" opacity="0.551"/>
<rect x="454.09" y="82.52" width="7.32" height="7.32" rx="1" fill="#313244" opacity="0.308"/>
<rect x="462.61" y="82.52" width="7.32" height="7.32" rx="1" fill="#313244" opacity="0.178"/>
<rect x="479.65" y="82.52" width="7.32" height="7.32" rx="1" fill="#313244" opacity="0.26"/>
<rect x="488.17" y="82.52" width="7.32" height="7.32" rx="1" fill="#313244" opacity="0.287"/>
<rect x="505.22" y="82.52" width="7.32" height="7.32" rx="1" fill="#313244" opacity="0.12"/>
<rect x="522.26" y="82.52" width="7.32" height="7.32" rx="1" fill="#b4befe" opacity="0.385"/>
<rect x="530.78" y="82.52" width="7.32" height="7.32" rx="1" fill="#313244" opacity="0.312"/>
<rect x="547.83" y="82.52" width="7.32" height="7.32" rx="1" fill="#cba6f7" opacity="0.858"/>
<rect x="564.87" y="82.52" width="7.32" height="7.32" rx="1" fill="#cba6f7" opacity="0.847"/>
<rect x="573.39" y="82.52" width="7.32" height="7.32" rx="1" fill="#b4befe" opacity="0.479"/>
<rect x="581.91" y="82.52" width="7.32" height="7.32" rx="1" fill="#313244" opacity="0.143"/>
<rect x="598.96" y="82.52" width="7.32" height="7.32" rx="1" fill="#cba6f7" opacity="0.771"/>
<rect x="616.00" y="82.52" width="7.32" height="7.32" rx="1" fill="#313244" opacity="0.132"/>
<rect x="624.52" y="82.52" width="7.32" height="7.32" rx="1" fill="#cba6f7" opacity="0.783"/>
<rect x="633.04" y="82.52" width="7.32" height="7.32" rx="1" fill="#313244" opacity="0.332"/>
<rect x="658.61" y="82.52" width="7.32" height="7.32" rx="1" fill="#313244" opacity="0.121"/>
<rect x="667.13" y="82.52" width="7.32" height="7.32" rx="1" fill="#313244" opacity="0.296"/>
<rect x="675.65" y="82.52" width="7.32" height="7.32" rx="1" fill="#313244" opacity="0.159"/>
<rect x="692.70" y="82.52" width="7.32" height="7.32" rx="1" fill="#cba6f7" opacity="0.96"/>
<rect x="701.22" y="82.52" width="7.32" height="7.32" rx="1" fill="#b4befe" opacity="0.572"/>
<rect x="709.74" y="82.52" width="7.32" height="7.32" rx="1" fill="#313244" opacity="0.228"/>
<rect x="718.26" y="82.52" width="7.32" height="7.32" rx="1" fill="#313244" opacity="0.289"/>
<rect x="726.78" y="82.52" width="7.32" height="7.32" rx="1" fill="#b4befe" opacity="0.475"/>
<rect x="735.30" y="82.52" width="7.32" height="7.32" rx="1" fill="#b4befe" opacity="0.666"/>
<rect x="743.83" y="82.52" width="7.32" height="7.32" rx="1" fill="#b4befe" opacity="0.487"/>
<rect x="752.35" y="82.52" width="7.32" height="7.32" rx="1" fill="#313244" opacity="0.166"/>
<rect x="760.87" y="82.52" width="7.32" height="7.32" rx="1" fill="#313244" opacity="0.217"/>
<rect x="777.91" y="82.52" width="7.32" height="7.32" rx="1" fill="#313244" opacity="0.116"/>
<rect x="786.43" y="82.52" width="7.32" height="7.32" rx="1" fill="#313244" opacity="0.142"/>
<rect x="794.96" y="82.52" width="7.32" height="7.32" rx="1" fill="#313244" opacity="0.255"/>
<rect x="803.48" y="82.52" width="7.32" height="7.32" rx="1" fill="#b4befe" opacity="0.486"/>
<rect x="28.00" y="91.04" width="7.32" height="7.32" rx="1" fill="#b4befe" opacity="0.48"/>
<rect x="36.52" y="91.04" width="7.32" height="7.32" rx="1" fill="#cba6f7" opacity="0.725"/>
<rect x="45.04" y="91.04" width="7.32" height="7.32" rx="1" fill="#cba6f7" opacity="0.997"/>
<rect x="53.57" y="91.04" width="7.32" height="7.32" rx="1" fill="#cba6f7" opacity="0.817"/>
<rect x="70.61" y="91.04" width="7.32" height="7.32" rx="1" fill="#b4befe" opacity="0.638"/>
<rect x="87.65" y="91.04" width="7.32" height="7.32" rx="1" fill="#cba6f7" opacity="0.944"/>
<rect x="96.17" y="91.04" width="7.32" height="7.32" rx="1" fill="#b4befe" opacity="0.531"/>
<rect x="104.70" y="91.04" width="7.32" height="7.32" rx="1" fill="#313244" opacity="0.167"/>
<rect x="130.26" y="91.04" width="7.32" height="7.32" rx="1" fill="#b4befe" opacity="0.675"/>
<rect x="155.83" y="91.04" width="7.32" height="7.32" rx="1" fill="#cba6f7" opacity="0.917"/>
<rect x="198.43" y="91.04" width="7.32" height="7.32" rx="1" fill="#b4befe" opacity="0.354"/>
<rect x="215.48" y="91.04" width="7.32" height="7.32" rx="1" fill="#313244" opacity="0.16"/>
<rect x="224.00" y="91.04" width="7.32" height="7.32" rx="1" fill="#b4befe" opacity="0.641"/>
<rect x="232.52" y="91.04" width="7.32" height="7.32" rx="1" fill="#b4befe" opacity="0.51"/>
<rect x="241.04" y="91.04" width="7.32" height="7.32" rx="1" fill="#313244" opacity="0.198"/>
<rect x="249.57" y="91.04" width="7.32" height="7.32" rx="1" fill="#b4befe" opacity="0.474"/>
<rect x="275.13" y="91.04" width="7.32" height="7.32" rx="1" fill="#b4befe" opacity="0.421"/>
<rect x="283.65" y="91.04" width="7.32" height="7.32" rx="1" fill="#313244" opacity="0.181"/>
<rect x="300.70" y="91.04" width="7.32" height="7.32" rx="1" fill="#b4befe" opacity="0.648"/>
<rect x="309.22" y="91.04" width="7.32" height="7.32" rx="1" fill="#313244" opacity="0.135"/>
<rect x="334.78" y="91.04" width="7.32" height="7.32" rx="1" fill="#cba6f7" opacity="0.848"/>
<rect x="343.30" y="91.04" width="7.32" height="7.32" rx="1" fill="#313244" opacity="0.176"/>
<rect x="351.83" y="91.04" width="7.32" height="7.32" rx="1" fill="#b4befe" opacity="0.647"/>
<rect x="360.35" y="91.04" width="7.32" height="7.32" rx="1" fill="#313244" opacity="0.332"/>
<rect x="368.87" y="91.04" width="7.32" height="7.32" rx="1" fill="#cba6f7" opacity="0.9"/>
<rect x="377.39" y="91.04" width="7.32" height="7.32" rx="1" fill="#b4befe" opacity="0.406"/>
<rect x="385.91" y="91.04" width="7.32" height="7.32" rx="1" fill="#b4befe" opacity="0.356"/>
<rect x="394.43" y="91.04" width="7.32" height="7.32" rx="1" fill="#313244" opacity="0.279"/>
<rect x="402.96" y="91.04" width="7.32" height="7.32" rx="1" fill="#b4befe" opacity="0.347"/>
<rect x="445.57" y="91.04" width="7.32" height="7.32" rx="1" fill="#313244" opacity="0.219"/>
<rect x="454.09" y="91.04" width="7.32" height="7.32" rx="1" fill="#b4befe" opacity="0.362"/>
<rect x="462.61" y="91.04" width="7.32" height="7.32" rx="1" fill="#313244" opacity="0.124"/>
<rect x="471.13" y="91.04" width="7.32" height="7.32" rx="1" fill="#cba6f7" opacity="0.765"/>
<rect x="479.65" y="91.04" width="7.32" height="7.32" rx="1" fill="#cba6f7" opacity="0.885"/>
<rect x="496.70" y="91.04" width="7.32" height="7.32" rx="1" fill="#cba6f7" opacity="0.893"/>
<rect x="505.22" y="91.04" width="7.32" height="7.32" rx="1" fill="#b4befe" opacity="0.652"/>
<rect x="513.74" y="91.04" width="7.32" height="7.32" rx="1" fill="#b4befe" opacity="0.451"/>
<rect x="522.26" y="91.04" width="7.32" height="7.32" rx="1" fill="#b4befe" opacity="0.573"/>
<rect x="530.78" y="91.04" width="7.32" height="7.32" rx="1" fill="#313244" opacity="0.171"/>
<rect x="539.30" y="91.04" width="7.32" height="7.32" rx="1" fill="#cba6f7" opacity="0.809"/>
<rect x="547.83" y="91.04" width="7.32" height="7.32" rx="1" fill="#313244" opacity="0.25"/>
<rect x="556.35" y="91.04" width="7.32" height="7.32" rx="1" fill="#b4befe" opacity="0.626"/>
<rect x="581.91" y="91.04" width="7.32" height="7.32" rx="1" fill="#313244" opacity="0.14"/>
<rect x="616.00" y="91.04" width="7.32" height="7.32" rx="1" fill="#cba6f7" opacity="0.86"/>
<rect x="624.52" y="91.04" width="7.32" height="7.32" rx="1" fill="#313244" opacity="0.121"/>
<rect x="633.04" y="91.04" width="7.32" height="7.32" rx="1" fill="#b4befe" opacity="0.397"/>
<rect x="641.57" y="91.04" width="7.32" height="7.32" rx="1" fill="#313244" opacity="0.143"/>
<rect x="650.09" y="91.04" width="7.32" height="7.32" rx="1" fill="#313244" opacity="0.333"/>
<rect x="658.61" y="91.04" width="7.32" height="7.32" rx="1" fill="#313244" opacity="0.136"/>
<rect x="675.65" y="91.04" width="7.32" height="7.32" rx="1" fill="#b4befe" opacity="0.58"/>
<rect x="684.17" y="91.04" width="7.32" height="7.32" rx="1" fill="#313244" opacity="0.13"/>
<rect x="718.26" y="91.04" width="7.32" height="7.32" rx="1" fill="#b4befe" opacity="0.502"/>
<rect x="769.39" y="91.04" width="7.32" height="7.32" rx="1" fill="#313244" opacity="0.239"/>
<rect x="803.48" y="91.04" width="7.32" height="7.32" rx="1" fill="#313244" opacity="0.149"/>

<g>
  <text x="28" y="149" font-family="JetBrains Mono, ui-monospace, SFMono-Regular, Menlo, monospace" font-size="12" fill="#a6adc8">weekdays</text>
  <rect x="124.00" y="140" width="11.75" height="11" rx="1" fill="#cba6f7" opacity="1.0"/><rect x="137.35" y="140" width="11.75" height="11" rx="1" fill="#cba6f7" opacity="1.0"/><rect x="150.70" y="140" width="11.75" height="11" rx="1" fill="#cba6f7" opacity="1.0"/><rect x="164.05" y="140" width="11.75" height="11" rx="1" fill="#cba6f7" opacity="1.0"/><rect x="177.40" y="140" width="11.75" height="11" rx="1" fill="#cba6f7" opacity="1.0"/><rect x="190.75" y="140" width="11.75" height="11" rx="1" fill="#cba6f7" opacity="1.0"/><rect x="204.10" y="140" width="11.75" height="11" rx="1" fill="#cba6f7" opacity="1.0"/><rect x="217.45" y="140" width="11.75" height="11" rx="1" fill="#cba6f7" opacity="1.0"/><rect x="230.80" y="140" width="11.75" height="11" rx="1" fill="#cba6f7" opacity="1.0"/><rect x="244.15" y="140" width="11.75" height="11" rx="1" fill="#cba6f7" opacity="1.0"/><rect x="257.50" y="140" width="11.75" height="11" rx="1" fill="#cba6f7" opacity="1.0"/><rect x="270.85" y="140" width="11.75" height="11" rx="1" fill="#cba6f7" opacity="1.0"/><rect x="284.20" y="140" width="11.75" height="11" rx="1" fill="#cba6f7" opacity="1.0"/><rect x="297.55" y="140" width="11.75" height="11" rx="1" fill="#cba6f7" opacity="1.0"/><rect x="310.90" y="140" width="11.75" height="11" rx="1" fill="#cba6f7" opacity="1.0"/><rect x="324.25" y="140" width="11.75" height="11" rx="1" fill="#cba6f7" opacity="1.0"/><rect x="337.60" y="140" width="11.75" height="11" rx="1" fill="#cba6f7" opacity="1.0"/><rect x="350.95" y="140" width="11.75" height="11" rx="1" fill="#cba6f7" opacity="1.0"/><rect x="364.30" y="140" width="11.75" height="11" rx="1" fill="#cba6f7" opacity="1.0"/><rect x="377.65" y="140" width="11.75" height="11" rx="1" fill="#cba6f7" opacity="1.0"/><rect x="391.00" y="140" width="11.75" height="11" rx="1" fill="#cba6f7" opacity="1.0"/><rect x="404.35" y="140" width="11.75" height="11" rx="1" fill="#cba6f7" opacity="1.0"/><rect x="417.70" y="140" width="11.75" height="11" rx="1" fill="#cba6f7" opacity="1.0"/><rect x="431.05" y="140" width="11.75" height="11" rx="1" fill="#cba6f7" opacity="1.0"/><rect x="444.40" y="140" width="11.75" height="11" rx="1" fill="#cba6f7" opacity="1.0"/><rect x="457.75" y="140" width="11.75" height="11" rx="1" fill="#cba6f7" opacity="1.0"/><rect x="471.10" y="140" width="11.75" height="11" rx="1" fill="#cba6f7" opacity="1.0"/><rect x="484.45" y="140" width="11.75" height="11" rx="1" fill="#cba6f7" opacity="1.0"/><rect x="497.80" y="140" width="11.75" height="11" rx="1" fill="#cba6f7" opacity="1.0"/><rect x="511.15" y="140" width="11.75" height="11" rx="1" fill="#cba6f7" opacity="1.0"/><rect x="524.50" y="140" width="11.75" height="11" rx="1" fill="#cba6f7" opacity="1.0"/><rect x="537.85" y="140" width="11.75" height="11" rx="1" fill="#cba6f7" opacity="1.0"/><rect x="551.20" y="140" width="11.75" height="11" rx="1" fill="#cba6f7" opacity="1.0"/><rect x="564.55" y="140" width="11.75" height="11" rx="1" fill="#cba6f7" opacity="1.0"/><rect x="577.90" y="140" width="11.75" height="11" rx="1" fill="#cba6f7" opacity="1.0"/><rect x="591.25" y="140" width="11.75" height="11" rx="1" fill="#cba6f7" opacity="1.0"/><rect x="604.60" y="140" width="11.75" height="11" rx="1" fill="#cba6f7" opacity="1.0"/><rect x="617.95" y="140" width="11.75" height="11" rx="1" fill="#cba6f7" opacity="1.0"/><rect x="631.30" y="140" width="11.75" height="11" rx="1" fill="#313244" opacity="0.45"/><rect x="644.65" y="140" width="11.75" height="11" rx="1" fill="#313244" opacity="0.45"/>
  <text x="674" y="149" font-family="JetBrains Mono, ui-monospace, SFMono-Regular, Menlo, monospace" font-size="12" fill="#cdd6f4">2.63</text>
  <text x="712" y="149" font-family="JetBrains Mono, ui-monospace, SFMono-Regular, Menlo, monospace" font-size="12" fill="#6c7086">/ 2.81 bits</text>
  <text x="124" y="166" font-family="JetBrains Mono, ui-monospace, SFMono-Regular, Menlo, monospace" font-size="9.5" fill="#6c7086">86 contributions across 7 days</text>
</g>

<g>
  <text x="28" y="195" font-family="JetBrains Mono, ui-monospace, SFMono-Regular, Menlo, monospace" font-size="12" fill="#a6adc8">the year</text>
  <rect x="124.00" y="186" width="11.75" height="11" rx="1" fill="#cba6f7" opacity="1.0"/><rect x="137.35" y="186" width="11.75" height="11" rx="1" fill="#cba6f7" opacity="1.0"/><rect x="150.70" y="186" width="11.75" height="11" rx="1" fill="#cba6f7" opacity="1.0"/><rect x="164.05" y="186" width="11.75" height="11" rx="1" fill="#cba6f7" opacity="1.0"/><rect x="177.40" y="186" width="11.75" height="11" rx="1" fill="#cba6f7" opacity="1.0"/><rect x="190.75" y="186" width="11.75" height="11" rx="1" fill="#cba6f7" opacity="1.0"/><rect x="204.10" y="186" width="11.75" height="11" rx="1" fill="#cba6f7" opacity="1.0"/><rect x="217.45" y="186" width="11.75" height="11" rx="1" fill="#cba6f7" opacity="1.0"/><rect x="230.80" y="186" width="11.75" height="11" rx="1" fill="#cba6f7" opacity="1.0"/><rect x="244.15" y="186" width="11.75" height="11" rx="1" fill="#cba6f7" opacity="1.0"/><rect x="257.50" y="186" width="11.75" height="11" rx="1" fill="#cba6f7" opacity="1.0"/><rect x="270.85" y="186" width="11.75" height="11" rx="1" fill="#cba6f7" opacity="1.0"/><rect x="284.20" y="186" width="11.75" height="11" rx="1" fill="#cba6f7" opacity="1.0"/><rect x="297.55" y="186" width="11.75" height="11" rx="1" fill="#cba6f7" opacity="1.0"/><rect x="310.90" y="186" width="11.75" height="11" rx="1" fill="#cba6f7" opacity="1.0"/><rect x="324.25" y="186" width="11.75" height="11" rx="1" fill="#cba6f7" opacity="1.0"/><rect x="337.60" y="186" width="11.75" height="11" rx="1" fill="#cba6f7" opacity="1.0"/><rect x="350.95" y="186" width="11.75" height="11" rx="1" fill="#cba6f7" opacity="1.0"/><rect x="364.30" y="186" width="11.75" height="11" rx="1" fill="#313244" opacity="0.45"/><rect x="377.65" y="186" width="11.75" height="11" rx="1" fill="#313244" opacity="0.45"/><rect x="391.00" y="186" width="11.75" height="11" rx="1" fill="#313244" opacity="0.45"/><rect x="404.35" y="186" width="11.75" height="11" rx="1" fill="#313244" opacity="0.45"/><rect x="417.70" y="186" width="11.75" height="11" rx="1" fill="#313244" opacity="0.45"/><rect x="431.05" y="186" width="11.75" height="11" rx="1" fill="#313244" opacity="0.45"/><rect x="444.40" y="186" width="11.75" height="11" rx="1" fill="#313244" opacity="0.45"/><rect x="457.75" y="186" width="11.75" height="11" rx="1" fill="#313244" opacity="0.45"/><rect x="471.10" y="186" width="11.75" height="11" rx="1" fill="#313244" opacity="0.45"/><rect x="484.45" y="186" width="11.75" height="11" rx="1" fill="#313244" opacity="0.45"/><rect x="497.80" y="186" width="11.75" height="11" rx="1" fill="#313244" opacity="0.45"/><rect x="511.15" y="186" width="11.75" height="11" rx="1" fill="#313244" opacity="0.45"/><rect x="524.50" y="186" width="11.75" height="11" rx="1" fill="#313244" opacity="0.45"/><rect x="537.85" y="186" width="11.75" height="11" rx="1" fill="#313244" opacity="0.45"/><rect x="551.20" y="186" width="11.75" height="11" rx="1" fill="#313244" opacity="0.45"/><rect x="564.55" y="186" width="11.75" height="11" rx="1" fill="#313244" opacity="0.45"/><rect x="577.90" y="186" width="11.75" height="11" rx="1" fill="#313244" opacity="0.45"/><rect x="591.25" y="186" width="11.75" height="11" rx="1" fill="#313244" opacity="0.45"/><rect x="604.60" y="186" width="11.75" height="11" rx="1" fill="#313244" opacity="0.45"/><rect x="617.95" y="186" width="11.75" height="11" rx="1" fill="#313244" opacity="0.45"/><rect x="631.30" y="186" width="11.75" height="11" rx="1" fill="#313244" opacity="0.45"/><rect x="644.65" y="186" width="11.75" height="11" rx="1" fill="#313244" opacity="0.45"/>
  <text x="674" y="195" font-family="JetBrains Mono, ui-monospace, SFMono-Regular, Menlo, monospace" font-size="12" fill="#cdd6f4">3.87</text>
  <text x="712" y="195" font-family="JetBrains Mono, ui-monospace, SFMono-Regular, Menlo, monospace" font-size="12" fill="#6c7086">/ 8.52 bits</text>
  <text x="124" y="212" font-family="JetBrains Mono, ui-monospace, SFMono-Regular, Menlo, monospace" font-size="9.5" fill="#6c7086">366 days observed</text>
</g>

<g>
  <text x="28" y="241" font-family="JetBrains Mono, ui-monospace, SFMono-Regular, Menlo, monospace" font-size="12" fill="#a6adc8">languages</text>
  <rect x="124.00" y="232" width="11.75" height="11" rx="1" fill="#313244" opacity="0.45"/><rect x="137.35" y="232" width="11.75" height="11" rx="1" fill="#313244" opacity="0.45"/><rect x="150.70" y="232" width="11.75" height="11" rx="1" fill="#313244" opacity="0.45"/><rect x="164.05" y="232" width="11.75" height="11" rx="1" fill="#313244" opacity="0.45"/><rect x="177.40" y="232" width="11.75" height="11" rx="1" fill="#313244" opacity="0.45"/><rect x="190.75" y="232" width="11.75" height="11" rx="1" fill="#313244" opacity="0.45"/><rect x="204.10" y="232" width="11.75" height="11" rx="1" fill="#313244" opacity="0.45"/><rect x="217.45" y="232" width="11.75" height="11" rx="1" fill="#313244" opacity="0.45"/><rect x="230.80" y="232" width="11.75" height="11" rx="1" fill="#313244" opacity="0.45"/><rect x="244.15" y="232" width="11.75" height="11" rx="1" fill="#313244" opacity="0.45"/><rect x="257.50" y="232" width="11.75" height="11" rx="1" fill="#313244" opacity="0.45"/><rect x="270.85" y="232" width="11.75" height="11" rx="1" fill="#313244" opacity="0.45"/><rect x="284.20" y="232" width="11.75" height="11" rx="1" fill="#313244" opacity="0.45"/><rect x="297.55" y="232" width="11.75" height="11" rx="1" fill="#313244" opacity="0.45"/><rect x="310.90" y="232" width="11.75" height="11" rx="1" fill="#313244" opacity="0.45"/><rect x="324.25" y="232" width="11.75" height="11" rx="1" fill="#313244" opacity="0.45"/><rect x="337.60" y="232" width="11.75" height="11" rx="1" fill="#313244" opacity="0.45"/><rect x="350.95" y="232" width="11.75" height="11" rx="1" fill="#313244" opacity="0.45"/><rect x="364.30" y="232" width="11.75" height="11" rx="1" fill="#313244" opacity="0.45"/><rect x="377.65" y="232" width="11.75" height="11" rx="1" fill="#313244" opacity="0.45"/><rect x="391.00" y="232" width="11.75" height="11" rx="1" fill="#313244" opacity="0.45"/><rect x="404.35" y="232" width="11.75" height="11" rx="1" fill="#313244" opacity="0.45"/><rect x="417.70" y="232" width="11.75" height="11" rx="1" fill="#313244" opacity="0.45"/><rect x="431.05" y="232" width="11.75" height="11" rx="1" fill="#313244" opacity="0.45"/><rect x="444.40" y="232" width="11.75" height="11" rx="1" fill="#313244" opacity="0.45"/><rect x="457.75" y="232" width="11.75" height="11" rx="1" fill="#313244" opacity="0.45"/><rect x="471.10" y="232" width="11.75" height="11" rx="1" fill="#313244" opacity="0.45"/><rect x="484.45" y="232" width="11.75" height="11" rx="1" fill="#313244" opacity="0.45"/><rect x="497.80" y="232" width="11.75" height="11" rx="1" fill="#313244" opacity="0.45"/><rect x="511.15" y="232" width="11.75" height="11" rx="1" fill="#313244" opacity="0.45"/><rect x="524.50" y="232" width="11.75" height="11" rx="1" fill="#313244" opacity="0.45"/><rect x="537.85" y="232" width="11.75" height="11" rx="1" fill="#313244" opacity="0.45"/><rect x="551.20" y="232" width="11.75" height="11" rx="1" fill="#313244" opacity="0.45"/><rect x="564.55" y="232" width="11.75" height="11" rx="1" fill="#313244" opacity="0.45"/><rect x="577.90" y="232" width="11.75" height="11" rx="1" fill="#313244" opacity="0.45"/><rect x="591.25" y="232" width="11.75" height="11" rx="1" fill="#313244" opacity="0.45"/><rect x="604.60" y="232" width="11.75" height="11" rx="1" fill="#313244" opacity="0.45"/><rect x="617.95" y="232" width="11.75" height="11" rx="1" fill="#313244" opacity="0.45"/><rect x="631.30" y="232" width="11.75" height="11" rx="1" fill="#313244" opacity="0.45"/><rect x="644.65" y="232" width="11.75" height="11" rx="1" fill="#313244" opacity="0.45"/>
  <text x="674" y="241" font-family="JetBrains Mono, ui-monospace, SFMono-Regular, Menlo, monospace" font-size="12" fill="#cdd6f4">0.00</text>
  <text x="712" y="241" font-family="JetBrains Mono, ui-monospace, SFMono-Regular, Menlo, monospace" font-size="12" fill="#6c7086">/ 0.00 bits</text>
  <text x="124" y="258" font-family="JetBrains Mono, ui-monospace, SFMono-Regular, Menlo, monospace" font-size="9.5" fill="#6c7086">—</text>
</g>
<line x1="28" y1="264" x2="812" y2="264" stroke="#313244"/>
<text x="28" y="283" font-family="JetBrains Mono, ui-monospace, SFMono-Regular, Menlo, monospace" font-size="11" fill="#f5c2e7">the bear is a creature of routine. this is a vulnerability.</text>
<text x="812" y="283" text-anchor="end" font-family="JetBrains Mono, ui-monospace, SFMono-Regular, Menlo, monospace" font-size="11" fill="#6c7086">disorder: 46%</text>
</svg>